<?xml version="1.0" encoding="UTF-8" standalone="no"?>
<!DOCTYPE svg PUBLIC "-//W3C//DTD SVG 1.1//EN" "http://www.w3.org/Graphics/SVG/1.1/DTD/svg11.dtd">
<svg xmlns="http://www.w3.org/2000/svg" version="1.1" viewBox="0 0 1133 924" width="1133.0pt" height="924.0pt">
<path d="M 0.00 0.00 L 1133.00 0.00 L 1133.00 924.00 L 888.56 924.00 C 888.37 847.40 888.56 770.62 888.48 694.00 C 888.50 690.98 888.28 687.84 888.79 684.85 C 890.07 682.22 892.26 679.95 894.04 677.63 C 894.74 677.47 895.45 677.32 896.15 677.17 C 896.27 674.74 896.25 672.21 896.77 669.83 C 897.47 668.57 898.40 667.42 899.27 666.28 C 899.31 664.78 899.33 663.28 899.36 661.78 C 898.85 661.66 898.33 661.55 897.82 661.43 C 897.06 658.93 896.45 656.32 894.82 654.22 C 892.92 651.80 890.61 649.69 888.51 647.45 C 888.52 636.53 888.52 625.60 888.47 614.67 L 886.71 614.67 C 873.97 614.67 861.22 614.67 848.48 614.68 C 846.15 614.67 843.83 614.64 841.51 614.68 C 831.04 614.67 820.57 614.66 810.11 614.68 C 807.22 614.68 804.32 614.65 801.43 614.67 C 788.25 614.72 775.06 614.59 761.88 614.73 C 760.54 614.93 759.20 615.20 757.86 615.45 C 762.24 619.91 765.53 624.38 765.87 630.90 C 769.72 634.77 772.49 639.15 773.90 644.46 C 776.39 647.94 778.92 651.40 781.37 654.90 C 781.45 655.71 781.53 656.51 781.62 657.31 C 784.35 660.32 786.73 663.58 788.95 666.97 C 792.40 672.19 796.59 676.87 800.28 681.90 C 801.49 685.70 800.80 690.34 799.68 694.10 C 799.44 697.09 799.48 700.01 800.01 702.97 C 800.79 705.42 801.38 707.93 801.86 710.46 C 802.23 710.46 802.59 710.47 802.96 710.47 C 804.61 712.69 806.35 714.57 808.48 716.33 C 808.88 722.68 809.54 728.56 806.36 734.38 C 805.82 734.54 805.28 734.70 804.75 734.87 C 804.65 738.02 804.51 741.18 804.38 744.33 C 803.51 744.48 802.63 744.62 801.76 744.77 C 801.83 750.79 800.76 756.63 800.25 762.60 C 799.72 763.04 799.19 763.47 798.66 763.91 C 798.39 766.00 798.09 768.10 797.76 770.19 L 797.66 770.84 C 797.23 777.64 797.38 784.47 797.17 791.28 C 796.77 787.49 796.39 783.70 796.03 779.90 L 795.22 791.78 L 794.24 791.21 C 794.36 792.23 794.48 793.26 794.60 794.28 C 794.18 795.16 793.75 796.04 793.31 796.91 C 793.19 794.11 793.32 791.33 793.32 788.53 C 792.72 792.91 792.54 797.02 791.14 801.24 C 789.85 805.11 788.55 808.85 788.50 813.00 C 788.43 818.43 788.02 823.66 787.06 829.01 C 784.88 841.84 785.32 854.47 783.82 867.33 C 783.35 871.60 783.32 875.86 783.13 880.15 C 781.10 880.45 779.06 880.56 777.00 880.58 C 735.35 880.51 693.66 880.52 652.00 880.56 C 629.84 880.38 607.66 880.74 585.49 880.44 C 585.39 792.06 585.42 703.66 585.50 615.28 C 583.94 615.05 582.40 614.80 580.83 614.66 C 574.06 614.65 567.30 614.66 560.53 614.70 L 558.36 614.82 L 556.76 615.43 C 556.57 703.38 556.83 791.73 556.63 879.67 C 539.63 880.00 522.56 879.92 505.57 879.67 C 506.36 876.42 507.34 873.46 506.94 870.06 C 506.25 864.04 506.26 858.05 506.35 852.00 C 506.30 773.15 506.42 694.29 506.28 615.44 C 505.41 615.57 504.55 615.71 503.68 615.86 C 502.24 621.33 502.79 626.42 502.75 632.00 C 502.73 708.67 502.75 785.33 502.74 862.00 C 502.83 867.09 502.00 871.59 503.90 876.44 C 504.05 877.53 504.19 878.61 504.32 879.70 C 484.54 880.10 464.77 879.54 445.00 879.81 C 435.33 879.76 425.66 879.90 415.99 879.61 C 397.88 879.89 379.73 880.00 361.62 879.61 C 361.30 874.73 360.71 869.87 360.48 864.98 C 360.19 858.61 358.90 852.39 358.69 846.00 C 358.42 840.65 358.74 835.27 358.44 829.92 C 358.24 826.16 356.49 822.69 355.59 819.00 C 354.48 814.61 354.65 810.42 353.99 806.00 C 353.40 801.93 351.81 798.16 351.35 794.03 C 350.70 789.43 351.02 784.61 350.04 780.09 C 349.12 776.64 347.27 773.37 345.63 770.22 C 345.59 769.25 345.56 768.27 345.54 767.30 L 346.57 765.91 C 345.54 762.80 344.35 759.70 343.53 756.52 C 342.57 752.71 342.93 748.84 342.26 745.04 C 341.48 742.54 339.89 740.35 339.10 737.83 C 337.00 730.60 333.95 724.67 334.57 716.87 C 336.73 713.74 340.80 712.20 342.23 708.54 C 344.14 703.83 346.24 698.10 345.49 692.98 C 344.74 689.30 343.35 685.89 343.14 682.08 C 347.35 678.75 350.20 674.46 353.24 670.12 C 360.00 661.44 365.11 651.47 371.38 642.44 C 373.84 638.82 375.12 634.61 377.68 631.03 C 381.25 626.05 382.95 620.16 386.12 614.90 L 384.64 614.84 C 383.42 614.78 382.20 614.73 380.99 614.70 C 368.08 614.64 355.17 614.68 342.26 614.69 C 339.56 614.69 336.86 614.66 334.15 614.70 C 323.47 614.64 312.79 614.68 302.11 614.68 C 299.86 614.67 297.62 614.66 295.37 614.69 C 282.41 614.70 269.44 614.58 256.48 614.75 C 255.86 614.82 255.25 614.91 254.64 615.01 C 254.50 626.50 254.72 638.00 254.52 649.49 C 250.46 652.57 247.31 655.64 244.43 659.88 C 244.41 662.58 244.42 665.29 244.45 668.00 C 246.27 670.85 248.09 673.70 250.11 676.42 C 250.68 678.27 251.25 680.11 251.81 681.97 C 252.73 682.83 253.64 683.71 254.56 684.58 C 254.70 764.38 254.58 844.19 254.61 924.00 L 0.00 924.00 L 0.00 0.00 Z" fill="#ffffff" />
<path d="M 239.93 31.67 C 243.60 31.37 247.32 31.57 251.00 31.56 C 465.67 31.58 680.33 31.58 895.00 31.57 C 899.54 31.66 904.37 31.13 908.82 32.03 C 911.93 32.92 913.19 34.70 913.66 37.86 L 911.41 37.35 C 911.02 36.87 910.63 36.39 910.22 35.92 L 909.15 34.77 C 901.99 33.12 894.44 33.81 887.00 33.66 C 879.63 33.43 872.37 34.58 865.00 34.34 C 682.67 34.30 500.33 34.36 318.00 34.31 C 311.65 34.40 305.33 34.41 299.00 33.78 C 292.27 33.11 285.69 34.69 278.99 34.03 C 271.39 33.33 263.66 33.81 256.00 33.67 C 250.19 33.73 243.89 33.22 238.22 34.51 C 236.13 34.83 235.22 36.87 234.55 38.63 C 233.26 42.44 233.63 47.01 233.58 51.00 C 233.70 56.01 233.36 61.06 233.70 66.06 C 233.82 68.82 235.92 71.29 237.38 73.54 C 258.25 73.76 279.13 73.67 300.00 73.66 C 305.02 73.57 309.99 74.19 315.00 74.30 C 368.97 74.33 423.05 74.28 477.00 74.32 C 481.68 74.31 486.32 73.70 491.00 73.68 C 541.67 73.72 592.32 73.66 643.00 73.70 C 648.04 73.85 652.96 74.54 658.01 73.95 C 665.76 73.13 673.25 74.36 680.99 74.25 C 716.33 74.40 751.66 74.23 787.00 74.34 C 792.02 74.40 796.99 73.73 802.00 73.68 C 832.31 73.70 862.69 73.68 893.00 73.59 C 895.27 73.63 897.52 73.92 899.76 74.24 C 902.93 74.79 906.12 75.21 909.32 75.55 C 878.89 75.74 848.43 75.64 818.00 75.69 C 811.29 75.73 804.69 75.44 797.99 76.02 C 791.98 76.52 786.02 76.30 780.00 76.32 C 722.67 76.34 665.33 76.33 608.00 76.34 C 601.30 76.10 594.70 76.10 588.00 76.33 C 482.33 76.32 376.67 76.36 271.00 76.31 C 260.96 75.47 251.02 75.65 240.96 75.64 C 236.60 76.14 233.24 72.21 231.79 68.55 C 231.03 63.47 231.62 58.14 231.47 53.00 C 231.59 48.19 231.00 43.05 231.97 38.33 C 233.24 35.26 236.35 31.69 239.93 31.67 Z" fill="#d6bd9b" />
<path d="M 238.22 34.51 C 243.89 33.22 250.19 33.73 256.00 33.67 C 263.66 33.81 271.39 33.33 278.99 34.03 C 285.69 34.69 292.27 33.11 299.00 33.78 C 305.33 34.41 311.65 34.40 318.00 34.31 C 500.33 34.36 682.67 34.30 865.00 34.34 C 872.37 34.58 879.63 33.43 887.00 33.66 C 894.44 33.81 901.99 33.12 909.15 34.77 L 910.22 35.92 C 905.15 36.44 900.09 36.34 895.00 36.25 C 679.33 36.26 463.67 36.27 248.00 36.23 C 244.50 36.26 240.86 36.05 237.40 36.61 C 235.91 39.58 236.56 43.74 236.42 47.00 C 236.74 55.23 235.66 62.50 237.47 70.47 C 242.28 71.42 247.10 71.61 252.00 71.49 C 399.66 71.67 547.34 71.53 695.00 71.58 C 759.67 71.58 824.33 71.58 889.00 71.45 C 896.04 71.64 902.71 71.31 909.70 70.42 C 911.91 63.96 911.39 57.69 911.35 51.00 C 911.33 46.09 910.27 41.94 911.41 37.35 L 913.66 37.86 C 913.88 38.94 914.11 40.02 914.35 41.09 C 914.53 49.40 914.48 57.72 914.47 66.02 C 914.70 69.76 912.19 71.75 910.17 74.51 C 906.69 74.50 903.23 74.52 899.76 74.24 C 897.52 73.92 895.27 73.63 893.00 73.59 C 862.69 73.68 832.31 73.70 802.00 73.68 C 796.99 73.73 792.02 74.40 787.00 74.34 C 751.66 74.23 716.33 74.40 680.99 74.25 C 673.25 74.36 665.76 73.13 658.01 73.95 C 652.96 74.54 648.04 73.85 643.00 73.70 C 592.32 73.66 541.67 73.72 491.00 73.68 C 486.32 73.70 481.68 74.31 477.00 74.32 C 423.05 74.28 368.97 74.33 315.00 74.30 C 309.99 74.19 305.02 73.57 300.00 73.66 C 279.13 73.67 258.25 73.76 237.38 73.54 C 235.92 71.29 233.82 68.82 233.70 66.06 C 233.36 61.06 233.70 56.01 233.58 51.00 C 233.63 47.01 233.26 42.44 234.55 38.63 C 235.22 36.87 236.13 34.83 238.22 34.51 Z" fill="#576068" />
<path d="M 248.00 36.23 C 463.67 36.27 679.33 36.26 895.00 36.25 C 900.09 36.34 905.15 36.44 910.22 35.92 C 910.63 36.39 911.02 36.87 911.41 37.35 C 910.27 41.94 911.33 46.09 911.35 51.00 C 911.39 57.69 911.91 63.96 909.70 70.42 C 902.71 71.31 896.04 71.64 889.00 71.45 C 824.33 71.58 759.67 71.58 695.00 71.58 C 547.34 71.53 399.66 71.67 252.00 71.49 C 247.10 71.61 242.28 71.42 237.47 70.47 C 235.66 62.50 236.74 55.23 236.42 47.00 C 236.56 43.74 235.91 39.58 237.40 36.61 C 240.86 36.05 244.50 36.26 248.00 36.23 Z" fill="#0d273d" />
<path d="M 255.67 83.66 C 258.46 82.55 262.02 83.41 265.00 83.38 C 275.66 83.51 286.32 83.32 296.98 83.45 C 299.74 83.50 302.44 83.33 305.15 82.77 C 331.41 82.28 357.74 82.83 384.00 82.58 C 394.00 82.62 404.00 82.56 414.00 82.58 C 417.85 82.56 421.25 83.54 425.04 83.02 C 431.95 82.18 439.03 82.76 446.00 82.56 C 450.72 82.37 455.30 83.38 460.00 83.43 C 517.32 83.41 574.67 83.41 632.00 83.41 C 633.96 83.40 635.91 83.32 637.86 83.20 C 642.08 82.13 645.76 83.48 650.00 83.43 C 663.33 83.42 676.67 83.37 690.00 83.46 C 692.44 83.49 694.77 83.23 697.16 82.72 C 698.72 82.72 700.28 82.73 701.84 82.77 C 705.68 83.67 709.15 82.56 713.00 82.58 C 748.33 82.58 783.68 82.62 819.00 82.56 C 821.08 82.56 823.11 82.87 825.15 83.28 C 827.38 83.34 829.62 83.34 831.85 83.28 C 836.26 82.25 840.53 82.60 845.00 82.59 C 857.29 82.67 869.59 82.43 881.87 82.71 C 883.75 83.07 885.62 83.43 887.51 83.71 C 888.04 86.45 888.50 89.19 888.49 92.00 C 888.44 172.44 888.54 252.90 888.45 333.33 L 886.56 333.35 C 886.80 254.91 886.47 176.45 886.70 98.00 C 886.67 95.00 886.79 91.85 886.19 88.90 C 885.31 87.30 883.65 86.95 881.99 86.70 C 879.03 86.36 875.98 86.46 873.00 86.47 C 674.67 86.51 476.33 86.40 278.00 86.51 C 271.09 86.52 264.19 86.65 257.28 86.35 C 256.09 92.60 256.58 98.69 256.53 105.00 C 256.50 181.13 256.53 257.25 256.52 333.38 L 255.28 333.37 C 255.17 253.25 255.27 173.12 255.23 93.00 C 255.26 89.91 255.18 86.72 255.67 83.66 Z" fill="#576068" />
<path d="M 257.28 86.35 C 264.19 86.65 271.09 86.52 278.00 86.51 C 476.33 86.40 674.67 86.51 873.00 86.47 C 875.98 86.46 879.03 86.36 881.99 86.70 C 883.65 86.95 885.31 87.30 886.19 88.90 C 886.79 91.85 886.67 95.00 886.70 98.00 C 886.47 176.45 886.80 254.91 886.56 333.35 C 873.94 333.41 861.33 333.36 848.71 333.39 C 848.66 327.99 848.73 322.72 847.15 317.49 C 844.60 308.68 845.09 299.94 843.51 291.02 C 841.16 276.00 841.90 261.18 840.26 246.18 C 839.77 242.01 838.56 238.15 837.93 233.98 C 836.83 226.72 836.69 219.28 835.67 212.02 C 834.29 203.40 834.41 194.70 833.58 186.00 C 833.60 176.56 833.04 167.16 832.00 157.78 C 829.35 145.30 828.57 132.39 828.30 119.66 C 826.71 119.66 825.12 119.67 823.52 119.67 C 824.33 125.65 824.67 131.52 824.72 137.55 C 825.97 152.90 824.93 168.39 825.90 183.74 C 827.62 195.78 828.24 207.90 829.34 220.00 C 830.01 227.85 832.64 235.12 833.13 242.98 C 833.85 253.80 833.02 264.21 834.26 274.98 C 834.62 281.17 836.19 287.17 836.55 293.35 C 836.83 297.63 837.12 301.77 838.07 305.97 C 838.98 310.00 840.17 313.83 840.46 317.99 C 840.81 323.11 840.67 328.27 840.71 333.40 C 830.40 333.38 820.08 333.38 809.77 333.39 C 807.69 329.70 805.49 326.44 805.37 322.03 C 805.12 317.11 802.98 313.02 801.79 308.30 C 800.96 305.16 799.03 302.62 797.94 299.62 C 797.32 296.84 797.46 293.91 796.83 291.12 C 796.25 288.71 795.18 286.53 794.74 284.04 C 794.21 281.17 794.26 277.90 793.16 275.22 C 791.98 272.20 790.38 269.60 789.80 266.33 C 789.38 263.57 789.44 260.75 789.07 257.99 C 788.66 254.67 787.52 251.64 786.94 248.35 C 786.46 245.70 786.37 242.95 785.83 240.31 C 784.96 236.35 782.69 233.14 782.42 229.06 C 781.84 220.57 782.02 211.12 779.40 203.00 C 777.87 198.09 778.31 193.03 776.91 188.13 C 775.87 184.36 774.34 181.03 774.24 177.04 C 774.03 171.36 774.44 165.72 773.74 160.05 C 772.96 153.22 773.74 146.98 771.89 140.29 C 770.17 133.98 769.14 127.37 765.94 121.64 C 765.21 120.27 763.94 119.74 762.72 118.89 C 762.39 123.30 762.45 127.66 763.47 131.98 C 764.86 138.01 764.49 143.88 765.13 150.00 C 765.81 156.90 764.96 163.31 766.25 170.00 C 766.83 173.15 767.82 176.18 768.55 179.35 C 770.17 186.30 770.24 193.49 771.34 200.66 C 772.58 208.74 773.12 216.86 773.69 225.00 C 773.92 228.99 775.11 232.69 776.35 236.44 C 778.44 242.59 778.03 248.82 779.57 255.17 C 780.76 260.07 781.22 265.04 781.89 270.02 C 782.49 274.35 785.11 277.69 785.87 281.99 C 786.93 287.92 788.55 293.71 789.39 299.68 C 789.95 303.91 792.29 307.17 793.47 311.15 C 795.41 318.57 797.13 326.08 799.41 333.41 C 787.61 333.38 775.80 333.36 764.00 333.41 C 761.46 333.46 759.03 332.94 756.56 332.41 C 756.57 331.34 756.57 330.28 756.57 329.21 L 754.62 329.68 L 756.00 327.61 L 754.14 327.53 L 754.81 325.50 L 753.26 325.55 L 753.72 323.39 L 751.30 323.56 L 751.81 321.42 L 750.25 321.55 L 750.68 319.48 C 746.79 319.38 742.89 319.38 739.00 319.40 C 623.94 319.49 508.79 319.35 393.74 319.47 C 393.29 320.59 392.84 321.70 392.39 322.81 L 391.24 322.30 C 391.39 323.09 391.54 323.89 391.69 324.68 C 390.98 324.58 390.26 324.47 389.55 324.37 C 389.45 327.03 389.36 329.70 389.31 332.36 C 386.55 332.90 383.83 333.45 381.00 333.41 C 368.55 333.36 356.09 333.38 343.63 333.40 C 344.96 329.12 346.50 324.98 348.51 320.97 C 350.66 316.70 350.36 312.43 351.64 307.56 C 352.66 302.93 354.55 298.69 356.60 294.44 C 358.74 289.91 357.86 285.62 358.99 280.80 C 359.88 277.23 360.85 273.68 361.80 270.13 C 362.93 266.04 365.24 263.02 365.50 259.01 C 365.96 252.42 365.00 246.46 367.00 239.95 C 368.31 236.01 369.55 232.12 370.08 227.98 C 370.85 222.19 373.51 217.55 373.57 211.65 C 373.60 201.67 373.00 190.30 376.17 180.72 C 377.58 176.30 377.38 171.70 378.88 167.31 C 379.66 164.84 380.64 162.58 381.00 160.02 C 382.14 146.22 382.76 132.45 382.15 118.61 C 380.49 118.28 379.42 117.28 378.17 119.00 C 376.75 121.55 377.01 125.19 376.60 128.03 C 376.25 133.31 373.30 137.66 373.00 142.99 C 372.44 150.65 372.99 158.38 372.62 166.05 C 372.47 169.70 371.09 172.70 370.22 176.17 C 369.31 179.76 369.15 183.39 368.32 186.99 C 367.48 190.77 366.09 194.10 365.66 198.00 C 364.95 205.08 366.54 212.73 364.49 219.64 C 363.44 223.10 362.28 226.52 361.24 229.98 C 360.03 233.93 358.07 237.66 357.26 241.63 C 356.44 245.92 357.82 250.72 357.61 255.06 C 357.41 257.11 356.10 259.09 355.29 260.97 C 353.75 264.12 353.56 267.51 352.05 270.70 C 351.31 272.40 350.26 274.16 349.89 275.96 C 349.24 280.35 350.34 285.04 348.65 289.18 C 346.64 294.18 345.08 299.34 342.98 304.31 C 341.48 307.85 342.10 311.41 341.24 315.02 C 338.79 321.22 335.08 327.01 333.10 333.39 C 323.02 333.37 312.93 333.40 302.84 333.36 C 303.58 326.90 303.32 320.42 304.15 313.97 C 305.28 304.00 306.20 294.01 306.90 284.00 C 307.34 277.19 309.94 270.91 310.39 264.13 C 310.97 245.08 313.33 226.03 314.46 207.00 C 314.61 201.97 314.57 196.98 315.29 191.98 C 316.05 185.53 317.84 179.41 318.36 172.98 C 318.84 166.83 318.42 160.68 319.01 154.54 C 319.75 146.68 319.49 138.88 319.68 131.00 C 319.69 128.09 319.83 125.00 319.22 122.15 C 318.28 121.29 316.61 121.36 315.42 121.03 C 314.51 127.33 314.36 133.66 313.75 139.99 C 313.19 146.31 313.73 152.60 313.03 158.92 C 312.02 168.25 311.08 177.57 310.57 187.00 C 310.36 193.38 309.99 199.68 309.12 206.02 C 308.45 210.53 306.83 214.41 306.51 218.96 C 306.07 225.30 306.63 231.64 305.99 237.99 C 305.33 246.40 303.37 254.54 303.22 263.00 C 302.76 276.19 298.87 288.75 298.49 301.96 C 298.35 312.48 297.19 322.90 296.22 333.36 C 282.99 333.42 269.75 333.38 256.52 333.38 C 256.53 257.25 256.50 181.13 256.53 105.00 C 256.58 98.69 256.09 92.60 257.28 86.35 Z" fill="#0d273d" />
<path d="M 382.15 118.61 C 382.76 132.45 382.14 146.22 381.00 160.02 C 380.64 162.58 379.66 164.84 378.88 167.31 C 377.38 171.70 377.58 176.30 376.17 180.72 C 373.00 190.30 373.60 201.67 373.57 211.65 C 373.51 217.55 370.85 222.19 370.08 227.98 C 369.55 232.12 368.31 236.01 367.00 239.95 C 365.00 246.46 365.96 252.42 365.50 259.01 C 365.24 263.02 362.93 266.04 361.80 270.13 C 360.85 273.68 359.88 277.23 358.99 280.80 C 357.86 285.62 358.74 289.91 356.60 294.44 C 354.55 298.69 352.66 302.93 351.64 307.56 C 350.36 312.43 350.66 316.70 348.51 320.97 C 346.50 324.98 344.96 329.12 343.63 333.40 C 340.12 333.40 336.61 333.37 333.10 333.39 C 335.08 327.01 338.79 321.22 341.24 315.02 C 342.10 311.41 341.48 307.85 342.98 304.31 C 345.08 299.34 346.64 294.18 348.65 289.18 C 350.34 285.04 349.24 280.35 349.89 275.96 C 350.26 274.16 351.31 272.40 352.05 270.70 C 353.56 267.51 353.75 264.12 355.29 260.97 C 356.10 259.09 357.41 257.11 357.61 255.06 C 357.82 250.72 356.44 245.92 357.26 241.63 C 358.07 237.66 360.03 233.93 361.24 229.98 C 362.28 226.52 363.44 223.10 364.49 219.64 C 366.54 212.73 364.95 205.08 365.66 198.00 C 366.09 194.10 367.48 190.77 368.32 186.99 C 369.15 183.39 369.31 179.76 370.22 176.17 C 371.09 172.70 372.47 169.70 372.62 166.05 C 372.99 158.38 372.44 150.65 373.00 142.99 C 373.30 137.66 376.25 133.31 376.60 128.03 C 377.01 125.19 376.75 121.55 378.17 119.00 C 379.42 117.28 380.49 118.28 382.15 118.61 Z" fill="#576068" />
<path d="M 443.18 118.13 C 447.24 117.08 451.82 117.62 456.00 117.54 C 536.74 117.59 618.26 117.58 699.01 117.52 C 701.08 117.72 703.60 117.38 704.14 119.98 C 705.38 126.84 705.25 134.07 705.47 141.02 C 705.56 145.15 706.82 148.92 707.31 152.97 C 707.83 156.58 707.79 160.45 709.00 163.84 C 710.07 166.87 711.22 169.87 712.08 172.98 C 710.10 173.72 708.18 174.39 706.03 174.36 C 615.91 174.23 525.59 174.33 435.43 174.34 C 435.44 173.74 435.45 173.13 435.46 172.53 C 440.64 172.76 445.82 172.75 451.00 172.71 C 532.67 172.79 614.33 172.59 696.00 172.74 C 700.50 172.84 704.94 172.88 709.37 171.96 C 706.98 166.41 707.19 160.41 704.87 154.86 C 701.03 144.08 703.67 131.50 701.71 121.42 C 623.14 121.27 544.57 121.40 466.00 121.36 C 458.90 121.46 451.77 121.12 444.68 121.58 C 441.58 126.61 442.75 131.38 442.12 136.94 C 441.56 141.95 441.13 147.00 440.32 151.99 C 439.61 155.99 437.76 159.31 436.14 162.97 C 434.62 156.32 437.70 151.49 438.90 145.18 C 440.50 137.76 439.09 130.44 440.07 123.21 C 440.49 121.10 440.84 118.87 443.18 118.13 Z" fill="#576068" />
<path d="M 765.94 121.64 C 769.14 127.37 770.17 133.98 771.89 140.29 C 773.74 146.98 772.96 153.22 773.74 160.05 C 774.44 165.72 774.03 171.36 774.24 177.04 C 774.34 181.03 775.87 184.36 776.91 188.13 C 778.31 193.03 777.87 198.09 779.40 203.00 C 782.02 211.12 781.84 220.57 782.42 229.06 C 782.69 233.14 784.96 236.35 785.83 240.31 C 786.37 242.95 786.46 245.70 786.94 248.35 C 787.52 251.64 788.66 254.67 789.07 257.99 C 789.44 260.75 789.38 263.57 789.80 266.33 C 790.38 269.60 791.98 272.20 793.16 275.22 C 794.26 277.90 794.21 281.17 794.74 284.04 C 795.18 286.53 796.25 288.71 796.83 291.12 C 797.46 293.91 797.32 296.84 797.94 299.62 C 799.03 302.62 800.96 305.16 801.79 308.30 C 802.98 313.02 805.12 317.11 805.37 322.03 C 805.49 326.44 807.69 329.70 809.77 333.39 C 806.32 333.38 802.87 333.40 799.41 333.41 C 797.13 326.08 795.41 318.57 793.47 311.15 C 792.29 307.17 789.95 303.91 789.39 299.68 C 788.55 293.71 786.93 287.92 785.87 281.99 C 785.11 277.69 782.49 274.35 781.89 270.02 C 781.22 265.04 780.76 260.07 779.57 255.17 C 778.03 248.82 778.44 242.59 776.35 236.44 C 775.11 232.69 773.92 228.99 773.69 225.00 C 773.12 216.86 772.58 208.74 771.34 200.66 C 770.24 193.49 770.17 186.30 768.55 179.35 C 767.82 176.18 766.83 173.15 766.25 170.00 C 764.96 163.31 765.81 156.90 765.13 150.00 C 764.49 143.88 764.86 138.01 763.47 131.98 C 762.45 127.66 762.39 123.30 762.72 118.89 C 763.94 119.74 765.21 120.27 765.94 121.64 Z" fill="#576068" />
<path d="M 828.30 119.66 C 828.57 132.39 829.35 145.30 832.00 157.78 C 833.04 167.16 833.60 176.56 833.58 186.00 C 834.41 194.70 834.29 203.40 835.67 212.02 C 836.69 219.28 836.83 226.72 837.93 233.98 C 838.56 238.15 839.77 242.01 840.26 246.18 C 841.90 261.18 841.16 276.00 843.51 291.02 C 845.09 299.94 844.60 308.68 847.15 317.49 C 848.73 322.72 848.66 327.99 848.71 333.39 C 846.05 333.39 843.38 333.40 840.71 333.40 C 840.67 328.27 840.81 323.11 840.46 317.99 C 840.17 313.83 838.98 310.00 838.07 305.97 C 837.12 301.77 836.83 297.63 836.55 293.35 C 836.19 287.17 834.62 281.17 834.26 274.98 C 833.02 264.21 833.85 253.80 833.13 242.98 C 832.64 235.12 830.01 227.85 829.34 220.00 C 828.24 207.90 827.62 195.78 825.90 183.74 C 824.93 168.39 825.97 152.90 824.72 137.55 C 824.67 131.52 824.33 125.65 823.52 119.67 C 825.12 119.67 826.71 119.66 828.30 119.66 Z" fill="#576068" />
<path d="M 319.22 122.15 C 319.83 125.00 319.69 128.09 319.68 131.00 C 319.49 138.88 319.75 146.68 319.01 154.54 C 318.42 160.68 318.84 166.83 318.36 172.98 C 317.84 179.41 316.05 185.53 315.29 191.98 C 314.57 196.98 314.61 201.97 314.46 207.00 C 313.33 226.03 310.97 245.08 310.39 264.13 C 309.94 270.91 307.34 277.19 306.90 284.00 C 306.20 294.01 305.28 304.00 304.15 313.97 C 303.32 320.42 303.58 326.90 302.84 333.36 C 300.63 333.36 298.43 333.36 296.22 333.36 C 297.19 322.90 298.35 312.48 298.49 301.96 C 298.87 288.75 302.76 276.19 303.22 263.00 C 303.37 254.54 305.33 246.40 305.99 237.99 C 306.63 231.64 306.07 225.30 306.51 218.96 C 306.83 214.41 308.45 210.53 309.12 206.02 C 309.99 199.68 310.36 193.38 310.57 187.00 C 311.08 177.57 312.02 168.25 313.03 158.92 C 313.73 152.60 313.19 146.31 313.75 139.99 C 314.36 133.66 314.51 127.33 315.42 121.03 C 316.61 121.36 318.28 121.29 319.22 122.15 Z" fill="#576068" />
<path d="M 444.68 121.58 C 451.77 121.12 458.90 121.46 466.00 121.36 C 544.57 121.40 623.14 121.27 701.71 121.42 C 703.67 131.50 701.03 144.08 704.87 154.86 C 707.19 160.41 706.98 166.41 709.37 171.96 C 704.94 172.88 700.50 172.84 696.00 172.74 C 614.33 172.59 532.67 172.79 451.00 172.71 C 445.82 172.75 440.64 172.76 435.46 172.53 C 435.51 169.33 435.75 166.15 436.14 162.97 C 437.76 159.31 439.61 155.99 440.32 151.99 C 441.13 147.00 441.56 141.95 442.12 136.94 C 442.75 131.38 441.58 126.61 444.68 121.58 Z" fill="#d6bd9b" />
<path d="M 704.66 159.78 C 705.31 163.48 705.67 167.21 706.26 170.92 C 705.95 171.04 705.64 171.16 705.33 171.28 C 700.23 170.17 695.17 170.38 690.00 170.46 C 611.33 170.48 532.67 170.44 454.00 170.47 C 448.72 170.40 443.57 170.14 438.39 171.43 C 438.37 170.51 438.35 169.59 438.33 168.67 C 443.55 170.09 448.68 169.72 454.00 169.69 C 537.21 169.76 620.43 169.60 703.64 169.73 C 703.53 166.35 703.69 163.04 704.66 159.78 Z" fill="#ffffff" />
<path d="M 434.71 181.47 C 434.65 187.54 433.54 192.21 430.63 197.59 C 427.96 202.62 428.97 207.44 428.27 212.83 C 427.48 217.89 425.04 221.87 425.61 227.19 C 430.02 227.70 434.57 227.42 439.00 227.45 C 527.33 227.45 615.67 227.45 704.00 227.44 C 708.91 227.50 713.77 227.63 718.64 226.82 C 718.45 221.45 718.55 216.27 717.14 211.03 C 715.62 205.67 715.21 200.47 712.64 195.45 C 710.42 191.03 710.54 186.51 710.56 181.69 L 712.20 182.44 C 712.68 186.12 712.45 189.48 714.13 192.86 C 716.28 197.00 716.38 201.62 718.33 205.82 C 721.60 212.54 719.54 219.28 721.60 226.66 C 720.23 227.59 718.75 229.18 717.07 229.36 C 712.75 229.78 708.34 229.41 704.00 229.48 C 611.99 229.55 519.98 229.51 427.97 229.53 C 426.10 229.48 424.62 229.18 423.49 227.57 C 423.14 223.09 424.07 218.47 424.36 214.00 C 424.62 209.08 427.27 204.92 427.59 199.98 C 427.82 197.06 428.84 194.54 430.12 191.94 C 431.81 188.58 431.55 185.33 431.97 181.70 C 432.88 181.60 433.79 181.52 434.71 181.47 Z" fill="#576068" />
<path d="M 434.71 181.47 C 446.80 181.18 458.91 181.44 471.00 181.36 C 546.33 181.35 621.67 181.36 697.00 181.35 C 701.49 181.37 706.10 181.15 710.56 181.69 C 710.54 186.51 710.42 191.03 712.64 195.45 C 715.21 200.47 715.62 205.67 717.14 211.03 C 718.55 216.27 718.45 221.45 718.64 226.82 C 713.77 227.63 708.91 227.50 704.00 227.44 C 615.67 227.45 527.33 227.45 439.00 227.45 C 434.57 227.42 430.02 227.70 425.61 227.19 C 425.04 221.87 427.48 217.89 428.27 212.83 C 428.97 207.44 427.96 202.62 430.63 197.59 C 433.54 192.21 434.65 187.54 434.71 181.47 Z" fill="#d6bd9b" />
<path d="M 422.85 234.57 C 432.57 234.68 442.27 234.80 452.00 234.70 C 459.02 234.55 465.98 235.41 473.00 235.31 C 503.34 235.16 533.66 235.34 564.00 235.28 C 570.71 235.39 577.31 235.22 584.00 234.78 C 591.36 234.31 598.66 235.40 606.01 234.96 C 611.70 234.66 617.31 235.39 623.00 235.31 C 637.33 235.22 651.67 235.35 666.00 235.25 C 682.00 234.23 697.93 235.00 714.00 234.66 C 716.63 234.64 719.38 234.49 721.98 234.94 C 724.23 236.53 725.73 239.33 727.00 241.72 C 729.14 245.72 727.97 249.69 728.70 254.05 C 730.32 258.16 731.85 262.28 733.45 266.40 C 736.23 271.48 736.38 277.45 736.32 283.11 C 733.40 284.31 730.11 284.22 727.00 284.22 C 717.00 283.97 707.00 284.02 697.00 283.89 C 613.67 283.76 530.33 283.89 447.00 283.87 C 439.00 283.91 431.00 284.18 423.00 284.13 C 418.54 284.07 413.74 284.62 409.37 283.67 C 407.65 283.25 407.47 281.58 407.62 280.07 C 407.80 276.15 409.01 272.59 410.32 268.95 C 411.51 265.81 411.50 262.52 412.34 259.32 C 413.51 256.70 415.74 255.12 415.95 252.04 C 416.50 247.37 416.44 242.99 418.65 238.69 C 419.66 236.95 420.35 234.34 422.85 234.57 Z" fill="#576068" />
<path d="M 421.86 236.74 C 426.21 236.33 430.63 236.69 435.00 236.63 C 526.00 236.66 617.00 236.63 708.00 236.64 C 712.36 236.69 716.78 236.36 721.12 236.75 C 721.92 236.72 722.49 237.20 722.81 238.21 C 724.46 244.37 725.38 250.75 726.89 256.95 C 727.74 259.75 729.79 262.01 730.52 264.91 C 732.06 270.86 734.16 276.35 734.69 282.51 C 716.13 282.78 697.56 282.57 679.00 282.63 C 589.34 282.58 499.51 282.71 409.87 282.60 C 410.10 281.27 410.37 279.94 410.68 278.63 C 411.75 277.81 412.96 277.13 414.10 276.40 C 413.27 272.21 412.83 268.09 413.53 263.84 C 414.36 261.08 416.26 258.76 417.13 255.99 C 418.02 253.06 419.63 250.56 420.91 247.82 C 421.82 244.55 419.31 239.61 421.86 236.74 Z" fill="#d6bd9b" />
<path d="M 424.00 289.83 C 527.93 289.82 631.86 289.86 735.79 289.82 C 738.15 289.98 741.23 290.20 743.05 291.88 C 743.74 295.42 743.53 299.17 743.77 302.77 C 745.18 304.29 747.82 305.62 747.61 307.97 C 747.55 309.17 747.81 311.48 746.50 312.11 C 741.77 312.85 736.78 312.26 732.00 312.37 C 621.99 312.25 510.02 312.28 399.98 312.37 C 398.63 312.28 397.02 312.09 396.49 310.61 C 396.20 309.02 396.28 307.34 396.36 305.74 L 398.61 304.89 C 398.61 306.72 398.59 308.56 398.60 310.39 C 514.33 310.16 630.13 310.45 745.86 310.25 C 744.47 307.35 742.81 304.44 741.76 301.42 C 740.81 298.55 740.60 295.28 740.30 292.28 C 734.09 290.87 728.30 291.50 722.00 291.41 C 622.33 291.43 522.67 291.42 423.00 291.41 C 417.67 291.46 412.38 291.60 407.08 290.92 C 412.24 288.99 418.47 289.97 424.00 289.83 Z" fill="#576068" />
<path d="M 407.08 290.92 C 412.38 291.60 417.67 291.46 423.00 291.41 C 522.67 291.42 622.33 291.43 722.00 291.41 C 728.30 291.50 734.09 290.87 740.30 292.28 C 740.60 295.28 740.81 298.55 741.76 301.42 C 742.81 304.44 744.47 307.35 745.86 310.25 C 630.13 310.45 514.33 310.16 398.60 310.39 C 398.59 308.56 398.61 306.72 398.61 304.89 C 399.22 304.67 399.84 304.45 400.46 304.24 C 400.51 303.48 400.56 302.73 400.62 301.97 C 402.50 299.10 403.55 296.76 403.82 293.26 C 404.12 292.71 404.42 292.16 404.72 291.61 C 405.50 291.37 406.29 291.14 407.08 290.92 Z" fill="#d6bd9b" />
<path d="M 504.77 325.60 C 505.26 326.29 505.75 326.99 506.22 327.69 C 506.47 329.35 506.62 331.03 506.79 332.70 C 505.55 332.68 504.30 332.66 503.06 332.64 C 503.52 330.26 504.03 327.91 504.77 325.60 Z" fill="#d6bd9b" />
<path d="M 568.65 325.71 C 569.15 328.02 569.51 330.34 569.86 332.68 C 568.56 332.63 567.27 332.59 565.98 332.55 C 566.66 330.18 567.48 327.89 568.65 325.71 Z" fill="#d6bd9b" />
<path d="M 638.71 325.47 C 639.73 327.89 640.55 330.39 641.32 332.90 C 639.43 332.90 637.54 332.90 635.65 332.89 C 636.38 330.29 637.28 327.78 638.71 325.47 Z" fill="#ffffff" />
<path d="M 415.36 327.85 C 415.92 329.42 416.41 331.02 416.90 332.62 C 415.27 332.59 413.65 332.56 412.02 332.52 C 412.94 330.72 413.57 328.97 415.36 327.85 Z" fill="#d6bd9b" />
<path d="M 458.33 327.85 C 459.82 329.27 460.69 331.03 461.60 332.84 C 459.62 332.87 457.64 332.89 455.65 332.89 C 456.50 331.18 457.34 329.48 458.33 327.85 Z" fill="#ffffff" />
<path d="M 731.69 328.11 C 733.47 329.09 734.03 330.83 735.04 332.50 C 733.36 332.54 731.68 332.58 730.00 332.60 C 730.52 331.09 731.06 329.58 731.69 328.11 Z" fill="#d6bd9b" />
<path d="M 606.48 372.25 C 611.72 373.19 615.72 376.01 620.50 378.03 C 625.69 381.77 630.68 385.02 634.82 389.99 C 640.37 396.03 643.69 403.32 646.33 411.01 C 648.42 417.67 648.30 424.12 648.22 431.00 C 648.19 461.33 648.22 491.67 648.21 522.00 C 648.16 528.13 648.65 533.90 647.18 539.91 C 646.11 543.96 644.14 547.97 642.56 551.87 C 640.58 557.00 636.89 561.51 633.29 565.61 C 629.50 569.92 624.99 572.63 620.42 576.02 C 616.27 577.39 612.36 580.90 608.03 580.57 C 591.68 580.55 575.34 580.54 558.99 580.55 C 554.44 580.92 551.09 577.52 546.59 575.99 C 541.80 571.83 536.73 569.07 532.58 564.42 C 527.54 558.79 523.12 552.01 520.87 544.77 C 519.84 538.63 518.96 532.21 518.67 526.00 C 518.68 493.68 518.69 461.32 518.65 429.00 C 518.70 424.00 519.75 418.98 520.28 414.01 C 520.76 405.85 525.65 397.84 530.71 391.66 C 536.92 383.83 545.03 378.50 553.99 374.31 C 570.82 367.91 589.25 366.42 606.48 372.25 Z" fill="#576068" />
<path d="M 933.24 369.51 C 935.11 368.62 936.99 368.71 939.00 368.68 C 955.02 368.80 971.08 368.66 987.10 368.75 C 989.96 368.52 991.35 371.13 993.02 372.98 C 1007.03 390.89 1021.47 408.48 1035.25 426.57 C 1050.02 407.88 1064.96 389.32 1079.62 370.53 C 1081.33 368.28 1083.50 368.82 1086.00 368.68 C 1100.90 368.80 1115.80 368.61 1130.70 368.77 C 1130.78 371.39 1130.86 372.93 1128.92 374.93 C 1106.94 401.52 1085.50 428.61 1063.24 454.97 C 1063.30 457.90 1063.32 460.69 1064.24 463.52 C 1067.72 473.93 1073.18 483.43 1079.88 492.09 C 1087.75 502.26 1095.13 512.41 1101.08 523.87 C 1110.38 541.40 1115.19 561.17 1114.47 581.03 C 1114.65 584.64 1111.69 588.13 1107.89 587.26 C 1104.49 586.25 1101.27 583.78 1097.74 583.37 C 1091.13 582.72 1084.47 583.46 1078.47 586.42 C 1070.31 590.14 1065.73 596.64 1058.44 601.44 C 1050.58 606.75 1041.44 610.24 1032.03 611.45 C 1020.87 612.32 1010.14 611.93 999.85 607.10 C 997.50 606.00 996.57 604.01 995.21 601.96 C 996.60 599.84 997.84 598.40 1000.21 597.32 C 1005.95 594.55 1010.30 590.10 1014.07 585.05 C 1022.16 574.25 1026.51 560.22 1028.45 547.00 C 1029.34 531.43 1028.44 516.12 1026.22 500.70 C 1007.91 523.87 989.32 546.82 970.81 569.82 C 969.03 571.91 967.35 574.65 964.96 576.05 C 962.03 576.50 958.96 576.27 956.00 576.30 C 943.91 576.30 931.83 576.31 919.74 576.33 C 919.05 575.91 918.37 575.50 917.69 575.09 C 917.67 574.33 917.66 573.57 917.64 572.81 C 928.24 559.66 938.72 546.42 949.18 533.16 C 966.25 511.87 983.26 490.55 1000.16 469.12 C 1002.05 466.69 1004.20 464.38 1005.86 461.78 C 1005.55 460.28 1004.17 458.99 1003.27 457.78 C 980.44 430.24 957.83 402.52 935.13 374.88 C 933.70 373.14 932.91 371.84 933.24 369.51 Z" fill="#0d273d" />
<path d="M 343.97 369.64 C 346.71 370.28 349.47 370.72 352.19 371.40 L 353.49 371.30 L 353.40 372.40 C 355.71 372.90 358.02 373.41 360.37 373.77 C 361.97 374.86 363.57 375.96 365.13 377.11 C 366.32 377.66 367.50 378.22 368.69 378.76 C 369.96 379.89 371.23 381.02 372.53 382.11 C 377.71 386.12 381.69 391.80 385.01 397.38 L 385.55 397.48 C 385.52 398.51 385.48 399.54 385.44 400.57 L 386.81 400.54 L 386.17 402.44 L 387.69 402.53 L 387.25 404.45 L 388.54 404.51 C 388.51 405.51 388.47 406.52 388.44 407.52 L 389.44 407.48 C 389.64 415.14 389.78 422.82 389.56 430.48 C 377.16 430.59 364.76 430.48 352.36 430.53 L 352.51 429.17 L 350.70 429.63 C 350.65 426.23 350.53 422.83 350.42 419.43 L 349.17 419.47 L 349.83 417.58 L 348.83 417.48 C 348.30 415.96 347.76 414.45 347.22 412.94 C 344.32 411.67 341.21 409.62 338.02 409.40 C 332.49 409.18 327.34 408.70 322.38 411.65 C 319.68 413.72 317.17 415.58 315.64 418.74 C 314.90 423.70 315.14 428.91 315.76 433.87 C 319.81 437.70 323.61 442.73 328.42 445.52 C 334.28 449.00 340.03 452.63 346.06 455.80 C 349.53 457.95 353.02 460.06 356.45 462.26 C 358.10 463.18 359.76 464.09 361.44 464.97 L 361.64 465.88 C 370.02 470.01 377.01 477.77 383.33 484.52 C 383.48 485.01 383.64 485.49 383.80 485.97 C 385.02 490.25 387.67 493.68 389.24 497.82 C 390.84 502.04 393.05 505.34 393.14 509.99 C 393.40 519.57 393.39 529.45 393.01 539.02 C 392.85 543.54 390.55 546.67 388.89 550.73 C 384.07 563.23 373.18 572.59 361.37 578.36 C 359.14 579.40 356.42 579.33 354.00 579.37 C 341.34 579.23 328.67 579.31 316.00 579.35 C 312.72 579.32 309.25 579.60 306.03 578.94 C 294.89 574.16 285.87 565.44 280.32 554.68 C 279.27 552.30 278.67 549.73 277.66 547.32 C 276.25 543.82 274.47 540.91 274.21 537.02 C 273.87 531.89 274.27 526.68 274.38 521.54 C 287.22 521.77 300.07 521.43 312.92 521.76 C 313.18 526.24 312.93 530.92 313.81 535.33 C 314.89 538.55 318.29 541.13 320.93 543.09 C 324.69 546.12 330.41 545.50 335.01 545.63 C 337.95 545.71 339.70 545.04 342.11 543.44 C 344.45 542.09 346.73 540.54 348.99 539.05 C 350.11 537.38 351.26 535.74 352.45 534.14 C 352.73 529.32 352.74 524.50 352.53 519.68 C 350.28 517.17 348.23 514.50 346.27 511.76 C 343.45 509.31 340.50 507.02 337.52 504.77 C 335.51 503.55 333.51 502.31 331.47 501.13 C 330.82 500.62 330.16 500.12 329.51 499.61 L 328.63 499.26 C 327.03 498.11 325.40 497.00 323.75 495.92 L 323.43 495.41 L 322.23 495.32 C 320.08 493.59 317.84 492.07 315.45 490.68 C 310.50 487.78 305.94 484.44 301.47 480.86 C 299.50 479.29 297.55 477.71 295.52 476.21 C 290.15 471.40 284.99 466.00 281.09 459.91 C 279.89 457.91 278.63 455.95 277.36 453.99 L 277.85 452.54 L 276.54 452.58 C 276.52 450.86 276.49 449.15 276.47 447.43 L 275.74 447.56 C 274.12 443.70 273.12 440.26 273.35 436.00 C 273.64 427.97 272.43 419.21 274.62 411.47 L 275.25 411.54 C 275.68 409.50 276.19 407.49 276.65 405.46 L 277.45 405.52 C 277.52 404.71 277.58 403.89 277.64 403.08 C 278.03 401.93 278.43 400.79 278.81 399.64 C 281.99 394.75 284.49 389.84 288.67 385.66 C 292.16 382.29 295.55 379.08 300.05 377.09 C 300.61 376.66 301.17 376.23 301.73 375.81 C 305.47 373.46 310.13 373.02 314.22 371.30 C 324.29 368.74 333.68 369.52 343.97 369.64 Z" fill="#0d273d" />
<path d="M 586.00 370.70 C 591.36 370.74 596.57 370.82 601.73 372.48 C 611.09 375.01 620.29 378.87 627.59 385.40 C 633.32 390.30 639.00 396.57 641.54 403.78 C 643.59 408.85 645.67 413.51 646.31 419.04 C 646.83 423.96 646.53 429.04 646.57 434.00 C 646.56 466.33 646.60 498.67 646.57 531.00 C 646.62 537.11 644.69 542.66 642.23 548.16 C 639.47 556.70 633.76 563.33 627.05 569.06 C 622.63 572.71 617.17 575.33 612.07 578.06 C 610.17 579.11 608.13 579.28 606.00 579.31 C 592.67 579.25 579.33 579.27 566.00 579.28 C 561.87 579.21 557.93 579.79 554.16 577.82 C 541.46 571.71 529.99 561.93 524.13 548.87 C 521.48 543.45 521.43 537.90 520.66 532.00 C 519.83 525.27 520.20 518.75 520.15 512.00 C 520.09 485.33 520.15 458.66 520.09 432.00 C 520.11 425.31 521.21 418.60 522.15 411.99 C 523.88 403.19 529.39 394.87 535.55 388.49 C 543.13 381.32 552.38 376.01 562.46 373.27 C 570.25 370.42 577.86 370.75 586.00 370.70 Z" fill="#0d273d" />
<path d="M 15.00 372.46 C 48.53 372.46 82.06 372.49 115.59 372.45 C 116.86 376.78 116.95 381.52 117.15 386.00 C 117.08 393.63 117.50 400.89 116.47 408.46 C 116.26 410.04 115.47 411.25 114.77 412.66 C 114.91 399.78 114.85 386.90 114.85 374.02 C 105.91 373.54 96.97 373.83 88.00 373.75 C 59.48 373.84 30.94 373.54 2.42 373.95 L 2.52 372.62 C 6.67 372.36 10.85 372.48 15.00 372.46 Z" fill="#576068" />
<path d="M 181.00 372.62 C 195.04 372.65 209.09 372.61 223.13 372.62 C 223.84 373.01 224.55 373.41 225.26 373.80 C 225.48 376.75 225.94 379.61 226.57 382.50 L 227.44 382.53 C 227.52 383.35 227.60 384.17 227.68 384.99 C 229.58 389.43 229.82 393.86 229.71 398.62 L 230.56 398.28 C 230.52 399.70 230.49 401.12 230.45 402.53 L 231.26 402.43 C 231.53 403.63 231.82 404.82 232.14 406.01 C 232.55 407.73 233.03 409.41 233.51 411.12 C 233.51 411.97 233.52 412.83 233.52 413.68 C 233.37 418.39 233.93 422.88 235.68 427.28 C 237.52 432.07 237.85 436.97 238.48 441.99 C 239.08 446.66 241.24 450.60 242.03 455.20 C 242.94 460.52 243.13 465.78 245.02 470.92 C 247.88 478.87 247.76 487.28 250.64 495.21 C 252.93 501.73 252.68 508.58 255.05 515.06 C 256.63 519.44 257.22 523.92 257.65 528.53 C 258.12 533.28 260.06 537.41 261.10 542.00 C 262.56 547.84 262.72 553.56 264.72 559.27 C 266.88 565.58 267.33 572.59 268.60 579.23 C 255.15 579.15 241.63 579.62 228.19 578.97 C 227.34 572.79 225.84 566.87 224.13 560.89 C 222.30 554.54 222.28 547.44 219.14 541.85 C 218.05 538.40 213.76 539.63 211.00 539.28 C 198.60 539.62 186.10 538.83 173.74 539.75 L 173.76 541.76 C 173.73 546.14 172.96 549.05 170.81 552.82 C 170.30 557.06 169.47 561.23 169.19 565.49 C 168.76 565.48 168.33 565.46 167.91 565.44 C 167.56 570.33 165.41 574.69 165.29 579.62 C 151.57 579.99 137.81 579.76 124.07 579.77 C 124.20 574.85 124.60 570.16 125.76 565.37 L 127.35 565.56 C 127.45 561.86 127.52 558.17 127.55 554.47 L 128.57 554.51 C 128.52 553.50 128.47 552.50 128.42 551.49 L 129.24 551.47 L 129.37 550.50 C 132.94 544.98 133.49 539.08 134.43 532.76 C 135.19 526.91 138.20 521.84 138.71 515.99 C 139.14 511.32 139.98 506.89 141.57 502.47 C 143.92 495.84 143.40 488.98 145.66 482.33 C 148.36 475.20 148.93 467.10 149.58 459.55 L 149.71 458.92 C 150.03 457.77 150.36 456.61 150.68 455.45 L 151.39 455.51 C 150.55 447.59 153.63 441.09 155.73 433.70 C 156.72 430.53 156.47 426.83 156.56 423.51 L 157.57 423.48 C 157.52 422.47 157.47 421.47 157.42 420.46 L 158.58 420.55 C 158.53 419.54 158.48 418.52 158.44 417.51 L 159.54 417.46 C 159.50 416.46 159.45 415.45 159.41 414.45 L 160.48 414.55 C 160.54 411.52 160.60 408.48 160.60 405.45 L 161.15 405.50 C 161.69 403.01 162.38 400.55 163.00 398.08 C 163.55 396.58 164.15 395.10 164.71 393.60 C 165.63 388.91 165.78 384.12 166.70 379.42 L 167.94 379.45 L 167.13 377.59 L 168.28 377.57 C 168.40 376.28 168.55 374.98 168.71 373.69 C 172.80 372.24 176.76 372.65 181.00 372.62 Z" fill="#0d273d" />
<path d="M 757.81 372.71 C 769.92 372.65 782.12 372.36 794.21 372.85 C 794.70 375.81 794.57 378.99 794.58 382.00 C 794.52 448.11 794.65 514.26 794.53 580.37 C 782.64 580.42 770.75 580.39 758.86 580.40 C 758.13 579.98 757.40 579.56 756.66 579.15 C 756.54 577.66 756.41 576.17 756.29 574.68 C 755.53 573.32 754.79 571.94 754.07 570.56 L 753.26 570.42 L 753.79 568.51 L 752.23 568.47 L 752.79 566.53 L 751.52 566.56 C 751.48 565.71 751.45 564.86 751.41 564.01 C 751.00 562.90 750.60 561.79 750.21 560.67 C 749.50 559.31 748.80 557.94 748.11 556.57 L 747.23 556.37 L 747.78 554.58 L 746.73 554.54 C 746.52 553.07 746.30 551.61 746.06 550.14 C 745.02 548.31 744.04 546.44 743.11 544.55 L 742.66 544.49 C 742.15 542.52 741.61 540.55 741.17 538.56 L 740.82 538.51 C 739.89 536.62 738.91 534.75 737.88 532.90 C 737.66 531.41 737.46 529.93 737.27 528.44 L 736.16 528.47 L 736.79 526.60 L 735.27 526.52 L 735.63 524.60 L 734.26 524.44 L 734.70 522.60 L 733.77 522.47 C 732.92 519.82 732.03 517.18 731.23 514.51 L 730.80 514.46 C 728.98 510.95 727.60 507.47 727.11 503.50 L 725.83 503.53 C 725.32 501.83 724.78 500.15 724.27 498.45 L 723.21 498.43 L 723.84 496.53 L 722.46 496.57 C 722.50 495.67 722.53 494.77 722.57 493.87 C 721.68 492.15 720.76 490.45 719.73 488.81 C 719.11 487.06 718.59 485.29 718.11 483.50 L 717.94 483.41 C 715.97 478.46 713.12 473.99 711.52 468.86 L 711.77 467.43 C 710.66 467.40 709.54 467.38 708.43 467.35 C 708.54 504.79 708.33 542.26 708.57 579.70 C 706.39 580.19 704.24 580.46 702.00 580.43 C 691.30 580.38 680.60 580.38 669.90 580.42 C 669.50 579.68 669.10 578.94 668.69 578.20 C 669.69 573.39 669.24 568.87 669.30 564.00 C 669.19 557.75 669.62 551.35 668.89 545.16 C 668.26 540.01 669.47 535.13 669.33 530.00 C 669.34 525.65 668.55 521.36 668.69 517.00 C 668.80 469.09 668.62 421.28 668.44 373.37 C 682.01 373.13 695.63 373.20 709.20 373.34 C 710.28 375.19 711.37 377.02 712.48 378.83 C 712.49 379.72 712.49 380.62 712.49 381.51 L 713.43 381.51 C 713.49 382.44 713.55 383.37 713.61 384.29 C 714.94 386.39 716.15 388.54 717.32 390.73 C 717.65 391.83 717.98 392.93 718.31 394.02 C 718.43 394.78 718.56 395.55 718.68 396.31 C 719.93 398.25 721.07 400.22 722.12 402.28 L 722.57 402.54 C 722.52 403.54 722.47 404.54 722.42 405.54 L 723.53 405.52 C 723.51 406.51 723.48 407.51 723.46 408.50 L 724.30 408.36 C 725.31 410.53 726.34 412.70 727.38 414.86 C 727.47 415.94 727.57 417.01 727.67 418.08 C 729.70 420.97 731.28 423.98 731.87 427.50 L 732.04 427.65 C 733.56 431.16 735.28 434.60 736.97 438.03 C 737.21 439.09 737.44 440.16 737.67 441.23 C 738.52 442.72 739.39 444.19 740.25 445.66 C 740.49 446.78 740.74 447.89 741.00 449.00 C 741.58 450.51 742.20 452.00 742.77 453.50 C 743.53 454.77 744.28 456.04 745.01 457.31 L 745.58 457.49 C 745.55 458.33 745.51 459.18 745.48 460.02 C 746.29 461.74 747.13 463.45 748.03 465.12 C 749.36 467.47 750.41 469.81 750.88 472.49 L 751.56 472.49 C 751.55 473.50 751.53 474.51 751.52 475.52 L 752.89 475.43 L 752.37 477.36 L 755.62 477.74 C 755.73 443.21 755.74 408.68 755.62 374.16 C 756.35 373.67 757.07 373.18 757.81 372.71 Z" fill="#0d273d" />
<path d="M 819.89 372.66 C 846.90 372.54 873.98 372.67 901.00 372.59 C 903.20 372.57 905.33 372.97 907.47 373.45 C 907.31 385.88 907.42 398.32 907.42 410.75 C 891.23 411.86 874.87 410.23 858.71 411.66 C 858.42 423.43 858.87 435.22 858.58 447.00 C 858.56 449.50 858.37 452.11 858.81 454.58 C 859.36 456.11 861.65 455.84 862.96 456.03 C 876.70 456.05 890.48 455.90 904.22 456.07 C 904.42 468.70 904.64 481.43 904.06 494.04 C 894.38 494.47 884.68 494.17 875.00 494.26 C 870.26 494.37 865.26 493.80 860.59 494.65 C 858.21 495.20 858.75 498.15 858.55 499.99 C 858.64 510.99 858.76 522.00 858.55 533.00 C 858.54 534.99 858.49 537.09 858.87 539.05 C 858.99 541.53 862.25 540.80 863.98 541.16 C 875.64 541.19 887.33 541.09 899.00 541.16 C 903.23 541.23 907.41 541.42 911.63 540.90 C 911.97 543.26 912.35 545.60 912.34 548.00 C 912.36 558.52 912.24 569.05 912.42 579.57 C 910.29 580.08 908.19 580.46 905.99 580.42 C 880.00 580.37 854.00 580.41 828.00 580.41 C 824.64 580.38 821.17 580.59 817.84 580.15 C 817.43 576.81 817.63 573.37 817.61 570.00 C 817.67 504.69 817.52 439.20 817.68 373.90 C 818.40 373.48 819.14 373.06 819.89 372.66 Z" fill="#0d273d" />
<path d="M 2.42 373.95 C 30.94 373.54 59.48 373.84 88.00 373.75 C 96.97 373.83 105.91 373.54 114.85 374.02 C 114.85 386.90 114.91 399.78 114.77 412.66 C 114.21 413.79 113.58 414.89 113.00 416.02 C 111.76 420.00 109.13 423.25 108.02 427.27 C 106.73 429.67 105.35 432.02 104.09 434.44 L 103.94 434.54 C 103.07 436.55 102.13 438.52 101.16 440.48 C 100.42 441.74 99.69 443.02 98.97 444.30 L 98.94 444.61 C 96.14 449.71 94.23 455.41 90.89 460.17 C 89.34 464.14 87.29 467.76 85.07 471.38 L 84.56 471.53 C 84.50 472.39 84.45 473.26 84.39 474.12 C 83.14 476.03 81.97 477.98 80.84 479.97 C 79.57 483.27 77.90 486.35 76.10 489.39 L 75.50 489.48 C 75.48 490.39 75.45 491.29 75.43 492.19 C 74.24 493.77 73.06 495.37 71.88 496.96 C 71.66 498.02 71.44 499.08 71.22 500.14 C 69.73 502.37 68.31 504.64 67.10 507.04 C 66.47 508.64 65.79 510.22 65.08 511.78 C 64.25 513.11 63.45 514.46 62.68 515.82 C 61.88 517.73 61.03 519.62 60.19 521.51 L 59.28 521.54 L 59.67 523.43 L 58.24 523.49 L 58.65 525.46 L 57.12 525.54 L 57.78 527.42 L 57.07 527.59 C 56.04 530.07 54.80 532.31 52.90 534.23 C 52.60 536.04 52.33 537.86 52.13 539.68 C 52.88 539.60 53.63 539.52 54.38 539.44 L 54.48 540.42 C 68.65 540.20 82.83 540.37 97.00 540.32 C 103.18 540.35 109.31 540.20 115.49 540.53 C 115.68 553.79 115.64 567.12 115.53 580.39 C 81.35 580.43 47.18 580.39 13.00 580.41 C 8.71 580.38 4.65 580.76 0.43 579.68 C 0.62 569.43 0.53 559.17 0.59 548.91 C 1.28 546.80 1.96 544.68 2.72 542.59 C 3.50 541.31 4.27 540.01 5.02 538.71 L 5.54 538.50 C 5.56 537.66 5.59 536.83 5.61 536.00 C 7.58 533.71 8.94 531.46 10.07 528.65 L 10.72 528.42 L 10.43 526.98 C 13.67 522.10 16.16 516.71 18.93 511.54 L 19.84 511.44 L 19.23 509.61 L 20.09 509.44 C 20.64 508.17 21.22 506.91 21.80 505.65 C 22.97 503.69 24.00 501.68 24.92 499.59 L 25.06 499.32 C 26.29 496.72 27.63 494.17 28.86 491.56 L 28.92 491.32 C 29.93 489.32 30.99 487.35 32.17 485.45 C 32.85 484.01 33.52 482.58 34.14 481.13 C 37.55 475.64 39.52 469.40 43.34 464.22 C 43.45 463.38 43.56 462.53 43.66 461.69 C 45.21 459.40 46.64 457.06 47.93 454.62 L 48.20 454.46 C 48.66 453.07 49.14 451.68 49.63 450.29 C 50.20 449.71 50.77 449.13 51.34 448.54 C 52.57 444.93 53.68 441.45 56.25 438.53 C 56.79 437.22 57.33 435.91 57.84 434.59 L 57.89 434.27 C 58.89 432.43 59.95 430.62 61.09 428.87 C 61.45 427.93 61.81 426.99 62.17 426.05 C 63.02 423.72 64.03 421.71 65.53 419.73 L 65.18 418.58 L 66.55 418.56 C 66.57 416.53 66.59 414.51 66.59 412.48 C 49.39 412.38 32.20 412.44 15.00 412.43 C 10.60 412.36 6.64 412.85 2.37 411.68 C 2.38 399.11 2.22 386.52 2.42 373.95 Z" fill="#0d273d" />
<path d="M 411.29 373.29 C 426.00 373.25 440.77 372.98 455.47 373.45 C 455.50 397.84 455.62 422.23 455.46 446.62 C 456.72 446.56 457.99 446.51 459.26 446.45 C 465.72 441.12 472.02 434.94 479.42 430.96 C 479.61 446.19 479.67 461.54 479.39 476.76 C 477.52 478.06 475.73 479.43 473.97 480.86 C 471.29 482.90 468.74 485.10 466.06 487.15 C 462.56 490.12 458.93 492.93 455.52 496.03 C 455.43 510.42 455.55 524.81 455.48 539.20 C 456.66 539.55 457.85 539.92 459.03 540.30 C 475.86 540.44 492.71 540.05 509.53 540.52 C 509.79 553.57 509.55 566.63 509.66 579.69 C 476.90 579.94 444.11 579.80 411.35 579.76 C 411.57 517.18 411.38 454.58 411.43 392.00 C 411.45 385.76 411.42 379.53 411.29 373.29 Z" fill="#0d273d" />
<path d="M 575.79 408.75 C 580.05 408.03 584.66 408.26 588.95 408.65 C 590.45 409.10 591.95 409.52 593.47 409.90 L 593.55 411.56 L 595.46 411.31 L 595.62 412.06 C 596.86 412.80 598.10 413.55 599.34 414.31 C 600.94 416.97 602.49 419.65 603.93 422.40 L 604.52 422.47 C 604.78 433.98 604.63 445.49 604.67 457.00 C 604.56 481.82 604.87 506.67 604.49 531.49 L 603.22 531.53 L 603.66 533.40 L 602.20 533.53 L 602.71 535.46 L 601.29 535.53 L 601.55 536.96 C 598.80 539.45 596.15 542.02 593.17 544.25 C 590.09 544.59 587.07 545.40 583.98 545.63 C 580.39 545.85 577.25 544.89 573.76 544.22 C 572.28 543.19 570.77 542.20 569.24 541.23 C 567.07 538.88 565.36 536.47 563.96 533.58 L 563.19 533.41 L 563.83 531.57 L 562.49 531.58 C 562.28 525.72 562.34 519.86 562.34 514.00 C 562.43 483.16 562.17 452.30 562.47 421.46 L 563.04 421.36 C 564.29 418.02 565.80 415.33 568.22 412.69 C 570.68 411.36 573.14 409.64 575.79 408.75 Z" fill="#ffffff" />
<path d="M 907.42 410.75 L 907.36 412.37 C 891.92 413.00 876.27 412.04 860.86 412.83 C 860.35 414.80 860.37 416.98 860.35 419.00 C 860.47 430.87 860.35 442.74 860.43 454.60 C 873.29 454.81 886.15 454.67 899.00 454.67 C 901.48 454.68 903.89 455.13 906.31 455.64 C 906.29 466.76 906.27 477.88 906.34 489.00 C 906.40 491.28 905.85 493.40 905.07 495.52 C 892.72 495.56 880.36 495.57 868.00 495.51 C 865.43 495.49 862.92 495.81 860.40 496.31 C 860.45 510.70 860.35 525.09 860.47 539.47 C 872.97 539.78 885.49 539.56 898.00 539.60 C 902.84 539.73 907.13 538.87 911.63 540.90 C 907.41 541.42 903.23 541.23 899.00 541.16 C 887.33 541.09 875.64 541.19 863.98 541.16 C 862.25 540.80 858.99 541.53 858.87 539.05 C 858.49 537.09 858.54 534.99 858.55 533.00 C 858.76 522.00 858.64 510.99 858.55 499.99 C 858.75 498.15 858.21 495.20 860.59 494.65 C 865.26 493.80 870.26 494.37 875.00 494.26 C 884.68 494.17 894.38 494.47 904.06 494.04 C 904.64 481.43 904.42 468.70 904.22 456.07 C 890.48 455.90 876.70 456.05 862.96 456.03 C 861.65 455.84 859.36 456.11 858.81 454.58 C 858.37 452.11 858.56 449.50 858.58 447.00 C 858.87 435.22 858.42 423.43 858.71 411.66 C 874.87 410.23 891.23 411.86 907.42 410.75 Z" fill="#576068" />
<path d="M 233.52 413.68 L 235.31 413.06 C 235.49 416.67 235.23 420.76 236.39 424.18 C 237.67 428.21 239.15 431.94 239.79 436.17 C 240.30 439.02 240.28 441.93 240.82 444.77 C 241.72 448.20 243.05 451.51 243.84 454.98 C 245.18 460.28 244.85 465.35 246.68 470.53 C 248.32 475.28 249.51 479.96 249.88 484.98 C 250.50 492.04 254.22 497.85 254.53 504.98 C 254.75 511.16 257.89 516.15 258.70 522.19 C 259.24 525.28 259.25 528.43 259.78 531.52 C 261.01 536.70 263.24 541.75 264.18 547.00 C 264.60 550.69 264.50 554.23 265.95 557.73 C 268.78 565.14 269.39 572.60 270.57 580.36 C 256.39 580.81 242.18 580.39 227.99 580.58 C 224.77 576.30 225.82 571.82 224.18 566.97 C 222.63 562.05 221.10 557.22 220.63 552.04 C 220.33 548.18 218.71 544.93 217.17 541.46 C 205.11 541.29 193.06 541.47 181.00 541.35 C 178.42 541.29 176.52 541.67 174.17 542.72 L 173.76 541.76 L 173.74 539.75 C 186.10 538.83 198.60 539.62 211.00 539.28 C 213.76 539.63 218.05 538.40 219.14 541.85 C 222.28 547.44 222.30 554.54 224.13 560.89 C 225.84 566.87 227.34 572.79 228.19 578.97 C 241.63 579.62 255.15 579.15 268.60 579.23 C 267.33 572.59 266.88 565.58 264.72 559.27 C 262.72 553.56 262.56 547.84 261.10 542.00 C 260.06 537.41 258.12 533.28 257.65 528.53 C 257.22 523.92 256.63 519.44 255.05 515.06 C 252.68 508.58 252.93 501.73 250.64 495.21 C 247.76 487.28 247.88 478.87 245.02 470.92 C 243.13 465.78 242.94 460.52 242.03 455.20 C 241.24 450.60 239.08 446.66 238.48 441.99 C 237.85 436.97 237.52 432.07 235.68 427.28 C 233.93 422.88 233.37 418.39 233.52 413.68 Z" fill="#576068" />
<path d="M 195.01 430.94 C 196.06 430.63 197.15 430.46 198.22 430.24 C 198.87 438.38 202.08 445.88 202.49 454.02 C 203.10 461.91 206.12 469.25 206.87 477.06 C 207.47 482.72 208.66 488.27 209.88 493.82 C 210.64 497.09 212.01 499.89 211.59 503.31 C 210.00 504.89 208.06 504.39 206.00 504.55 C 198.12 504.45 190.24 504.51 182.36 504.45 C 182.35 503.81 182.35 503.16 182.35 502.52 C 188.90 503.43 195.41 503.17 202.00 503.25 C 204.88 503.27 207.73 502.94 210.57 502.51 C 208.05 493.87 205.88 484.96 205.22 475.96 C 204.84 471.75 203.45 467.98 202.43 463.92 C 200.86 457.86 201.28 451.60 199.52 445.54 C 198.31 441.27 197.79 436.92 197.14 432.54 C 194.10 435.68 194.67 439.87 194.07 443.96 C 193.74 450.56 190.91 456.47 190.27 463.01 C 189.65 468.78 188.87 474.45 186.96 479.96 C 184.56 486.81 186.14 493.10 182.38 499.44 C 182.41 497.24 182.50 495.05 182.58 492.86 L 183.27 492.11 C 183.81 487.69 183.93 482.52 185.98 478.50 C 187.85 472.78 187.53 466.88 188.79 460.93 C 189.70 455.28 192.28 450.72 192.45 445.01 C 192.65 440.19 192.98 435.40 195.01 430.94 Z" fill="#d6bd9b" />
<path d="M 197.14 432.54 C 197.79 436.92 198.31 441.27 199.52 445.54 C 201.28 451.60 200.86 457.86 202.43 463.92 C 203.45 467.98 204.84 471.75 205.22 475.96 C 205.88 484.96 208.05 493.87 210.57 502.51 C 207.73 502.94 204.88 503.27 202.00 503.25 C 195.41 503.17 188.90 503.43 182.35 502.52 C 182.35 501.49 182.36 500.47 182.38 499.44 C 186.14 493.10 184.56 486.81 186.96 479.96 C 188.87 474.45 189.65 468.78 190.27 463.01 C 190.91 456.47 193.74 450.56 194.07 443.96 C 194.67 439.87 194.10 435.68 197.14 432.54 Z" fill="#ffffff" />
<path d="M 149.58 459.55 C 148.93 467.10 148.36 475.20 145.66 482.33 C 143.40 488.98 143.92 495.84 141.57 502.47 C 139.98 506.89 139.14 511.32 138.71 515.99 C 138.20 521.84 135.19 526.91 134.43 532.76 C 133.49 539.08 132.94 544.98 129.37 550.50 C 129.63 545.85 131.53 541.61 131.85 536.96 C 132.51 528.97 136.67 522.13 137.01 514.08 C 137.61 506.63 141.65 500.45 141.64 492.99 C 142.05 486.31 145.07 480.78 145.93 474.02 C 146.66 468.90 146.87 464.14 149.58 459.55 Z" fill="#576068" />
<path d="M 1053.77 467.60 C 1055.94 472.40 1057.59 477.39 1060.06 482.07 C 1065.83 493.30 1073.73 501.84 1080.82 512.12 C 1085.67 519.12 1090.39 526.38 1093.94 534.13 C 1099.80 546.57 1102.73 559.92 1103.68 573.59 C 1097.48 572.30 1091.24 571.84 1084.95 572.78 C 1080.63 573.56 1076.31 575.49 1072.17 576.96 C 1073.75 564.74 1074.52 551.72 1072.11 539.56 C 1068.73 521.41 1058.57 505.32 1053.84 487.02 C 1052.06 480.47 1051.59 473.88 1051.59 467.11 C 1052.32 467.27 1053.05 467.43 1053.77 467.60 Z" fill="#d6bd9b" />
<path d="M 1037.61 471.53 C 1040.93 476.63 1042.36 482.75 1044.46 488.62 C 1048.73 501.77 1054.09 514.50 1058.49 527.60 C 1063.85 543.59 1065.10 561.22 1061.67 577.75 C 1060.60 582.04 1059.85 587.25 1056.39 590.31 C 1050.62 595.56 1042.59 598.60 1035.04 600.15 C 1028.66 601.11 1022.05 600.90 1015.62 600.59 C 1020.58 594.67 1025.70 589.20 1029.05 582.14 C 1036.20 567.68 1040.58 551.20 1039.80 535.00 C 1040.06 520.90 1037.31 507.11 1037.48 493.00 C 1037.57 485.85 1036.88 478.63 1037.61 471.53 Z" fill="#d6bd9b" />
<path d="M 383.80 485.97 C 388.53 490.21 390.21 495.57 392.52 501.25 C 394.23 505.30 395.15 509.62 395.38 514.00 C 395.66 523.92 395.57 533.53 393.86 543.33 C 392.26 547.75 390.12 552.07 388.18 556.36 C 382.03 566.77 372.54 575.35 361.42 580.14 C 360.03 580.59 358.45 580.54 357.01 580.59 C 341.01 580.56 325.00 580.54 309.00 580.59 C 306.97 580.51 305.13 580.63 303.31 579.60 C 291.24 573.39 280.35 562.13 276.54 548.91 C 275.13 545.22 273.34 541.93 272.90 537.92 C 272.31 532.46 272.56 526.89 272.43 521.41 C 273.17 520.82 273.91 520.23 274.66 519.64 C 287.23 519.67 299.80 519.64 312.37 519.65 C 313.07 520.27 313.76 520.88 314.46 521.49 C 314.70 525.97 313.95 531.39 315.82 535.53 C 317.92 538.69 321.31 541.89 324.88 543.27 C 330.48 544.19 336.46 543.77 342.11 543.44 C 339.70 545.04 337.95 545.71 335.01 545.63 C 330.41 545.50 324.69 546.12 320.93 543.09 C 318.29 541.13 314.89 538.55 313.81 535.33 C 312.93 530.92 313.18 526.24 312.92 521.76 C 300.07 521.43 287.22 521.77 274.38 521.54 C 274.27 526.68 273.87 531.89 274.21 537.02 C 274.47 540.91 276.25 543.82 277.66 547.32 C 278.67 549.73 279.27 552.30 280.32 554.68 C 285.87 565.44 294.89 574.16 306.03 578.94 C 309.25 579.60 312.72 579.32 316.00 579.35 C 328.67 579.31 341.34 579.23 354.00 579.37 C 356.42 579.33 359.14 579.40 361.37 578.36 C 373.18 572.59 384.07 563.23 388.89 550.73 C 390.55 546.67 392.85 543.54 393.01 539.02 C 393.39 529.45 393.40 519.57 393.14 509.99 C 393.05 505.34 390.84 502.04 389.24 497.82 C 387.67 493.68 385.02 490.25 383.80 485.97 Z" fill="#576068" />
<path d="M 254.64 615.01 C 255.25 614.91 255.86 614.82 256.48 614.75 C 256.39 625.17 256.46 635.59 256.46 646.01 C 256.35 647.83 256.48 650.09 255.61 651.75 C 253.62 654.37 249.92 656.39 248.38 659.38 C 246.71 662.78 247.11 666.89 248.97 670.13 C 251.89 675.70 256.77 681.43 256.50 687.96 C 256.37 766.64 256.47 845.32 256.45 924.00 L 254.61 924.00 C 254.58 844.19 254.70 764.38 254.56 684.58 C 253.64 683.71 252.73 682.83 251.81 681.97 C 251.25 680.11 250.68 678.27 250.11 676.42 C 248.09 673.70 246.27 670.85 244.45 668.00 C 244.42 665.29 244.41 662.58 244.43 659.88 C 247.31 655.64 250.46 652.57 254.52 649.49 C 254.72 638.00 254.50 626.50 254.64 615.01 Z" fill="#576068" />
<path d="M 256.48 614.75 C 269.44 614.58 282.41 614.70 295.37 614.69 C 294.15 620.41 293.49 626.22 292.14 631.92 C 290.38 639.19 290.07 646.62 290.32 654.06 C 290.24 656.56 291.87 657.82 293.15 659.78 C 294.42 657.24 295.49 654.91 295.51 652.03 C 295.75 644.57 297.77 637.41 298.25 629.97 C 298.50 624.57 300.19 619.66 302.11 614.68 C 312.79 614.68 323.47 614.64 334.15 614.70 C 329.87 620.32 328.35 626.55 326.24 633.12 C 324.94 637.37 322.57 640.99 320.85 645.04 C 319.29 648.72 318.85 652.30 316.96 655.74 C 315.27 658.88 313.54 661.73 312.98 665.34 C 312.87 666.55 312.50 667.75 313.33 668.78 C 314.19 669.74 315.76 670.11 316.91 670.66 C 319.41 665.50 321.37 660.34 324.57 655.54 C 327.72 650.88 328.82 645.53 331.63 640.67 C 334.53 635.71 334.99 630.18 337.43 625.04 C 339.02 621.58 340.75 618.18 342.26 614.69 C 355.17 614.68 368.08 614.64 380.99 614.70 C 379.41 619.33 377.62 623.83 374.87 627.90 C 371.80 632.35 369.79 637.36 366.74 641.82 C 363.69 646.24 361.68 651.20 358.53 655.55 C 354.13 661.71 350.16 668.34 345.24 674.10 C 342.96 676.81 339.58 679.31 339.58 683.19 C 339.68 689.96 341.69 698.74 339.50 705.71 C 336.99 709.93 332.54 713.19 329.05 716.61 C 330.12 719.39 331.59 722.09 332.35 724.96 C 332.80 728.03 332.56 731.22 332.60 734.32 C 334.42 736.26 336.03 738.07 336.61 740.77 C 337.95 746.18 340.67 750.26 340.44 755.99 C 340.69 760.11 339.42 766.32 343.98 768.52 C 344.08 772.69 344.77 776.87 345.29 781.01 C 345.72 784.22 347.36 786.89 348.17 789.96 C 348.91 795.40 347.63 801.56 348.90 806.96 C 350.08 810.22 352.27 813.08 353.55 816.32 C 353.59 818.20 353.55 820.07 353.50 821.95 C 353.25 825.69 353.50 828.96 354.40 832.58 C 355.57 837.35 355.60 842.15 355.52 847.02 C 355.41 853.71 356.40 860.31 356.39 867.00 C 356.48 871.15 356.13 875.46 356.77 879.56 C 356.94 880.94 358.86 881.62 360.06 881.73 C 364.65 882.21 369.38 881.60 374.00 881.65 C 431.33 881.78 488.67 881.64 546.00 881.68 C 550.12 881.65 554.48 882.28 558.54 881.58 C 560.46 881.15 560.66 879.76 560.69 878.03 C 560.51 790.78 560.66 701.81 560.53 614.70 C 567.30 614.66 574.06 614.65 580.83 614.66 C 582.10 620.49 581.48 626.10 581.56 632.00 C 581.62 714.83 581.54 797.85 581.64 880.65 C 587.03 882.42 592.42 882.23 598.00 882.12 C 655.67 882.10 713.33 882.07 771.00 882.13 C 775.27 882.12 779.71 882.39 783.94 881.74 C 785.28 881.49 786.35 881.25 786.50 879.68 C 787.08 874.92 786.72 870.08 787.34 865.31 C 787.91 859.68 790.03 854.62 790.33 849.02 C 790.60 843.56 790.97 838.32 789.53 832.97 C 789.54 826.49 789.46 820.22 790.29 813.79 C 791.78 812.20 793.86 810.59 794.24 808.34 C 795.15 803.71 795.41 798.95 794.60 794.28 C 794.48 793.26 794.36 792.23 794.24 791.21 L 795.22 791.78 L 796.03 779.90 C 796.39 783.70 796.77 787.49 797.17 791.28 C 797.38 784.47 797.23 777.64 797.66 770.84 L 797.76 770.19 C 799.00 769.10 800.56 768.12 801.54 766.77 C 802.49 764.02 802.25 760.83 802.76 757.95 C 803.16 754.70 805.51 751.98 806.17 748.98 C 806.63 745.69 806.16 742.22 806.74 738.96 C 807.56 737.02 808.97 735.37 809.80 733.45 C 810.68 730.44 811.06 727.36 812.34 724.46 C 813.19 722.27 814.44 719.30 812.74 717.22 C 809.93 713.88 806.78 711.07 804.74 707.11 C 802.26 703.07 802.05 698.56 802.51 693.96 C 802.82 690.66 806.91 687.55 805.43 684.25 C 803.90 681.16 800.99 678.78 799.07 675.90 C 796.22 671.62 792.61 668.02 789.98 663.60 C 787.55 659.61 784.37 656.45 782.72 651.97 C 781.37 648.19 778.63 645.75 775.88 642.99 C 775.44 640.91 775.13 638.56 774.19 636.63 C 772.61 633.74 769.78 631.56 768.19 628.70 C 767.23 626.15 767.06 623.24 765.96 620.74 C 764.81 618.62 763.25 616.71 761.88 614.73 C 775.06 614.59 788.25 614.72 801.43 614.67 C 803.21 620.19 804.59 625.51 807.43 630.61 C 810.39 635.89 811.27 641.84 814.16 647.16 C 816.94 652.29 818.34 657.36 822.12 661.87 C 824.35 664.43 825.58 667.35 826.59 670.55 C 827.27 670.61 827.95 670.67 828.63 670.73 C 828.57 667.47 828.88 664.54 827.47 661.50 C 825.18 656.56 825.27 651.27 822.30 646.60 C 818.40 640.06 817.63 632.62 814.14 625.93 C 812.30 622.32 810.85 618.68 810.11 614.68 C 820.57 614.66 831.04 614.67 841.51 614.68 C 840.63 622.69 843.97 629.23 844.87 636.99 C 845.34 640.90 847.28 644.21 848.17 647.97 C 848.75 651.41 848.48 655.05 848.47 658.53 C 849.81 658.50 851.16 658.46 852.51 658.43 C 852.63 653.11 852.64 647.86 851.50 642.63 C 849.42 633.42 849.31 624.23 848.48 614.68 C 861.22 614.67 873.97 614.67 886.71 614.67 C 886.63 623.12 886.77 631.56 886.67 640.00 C 886.60 644.01 886.91 647.93 887.55 651.89 C 889.85 653.70 894.12 655.93 894.41 659.15 C 895.01 664.76 894.96 670.95 891.63 675.77 C 889.69 679.05 886.50 681.89 886.62 685.95 C 886.75 765.00 886.62 844.86 886.64 924.00 L 782.51 924.00 C 782.12 921.78 781.71 919.55 781.36 917.32 C 776.21 916.08 771.23 916.53 766.00 916.49 C 635.67 916.45 505.33 916.50 375.00 916.49 C 370.36 916.58 366.17 915.96 361.74 917.53 C 361.28 919.68 360.89 921.84 360.49 924.00 L 256.45 924.00 C 256.47 845.32 256.37 766.64 256.50 687.96 C 256.77 681.43 251.89 675.70 248.97 670.13 C 247.11 666.89 246.71 662.78 248.38 659.38 C 249.92 656.39 253.62 654.37 255.61 651.75 C 256.48 650.09 256.35 647.83 256.46 646.01 C 256.46 635.59 256.39 625.17 256.48 614.75 Z" fill="#0d273d" />
<path d="M 295.37 614.69 C 297.62 614.66 299.86 614.67 302.11 614.68 C 300.19 619.66 298.50 624.57 298.25 629.97 C 297.77 637.41 295.75 644.57 295.51 652.03 C 295.49 654.91 294.42 657.24 293.15 659.78 C 291.87 657.82 290.24 656.56 290.32 654.06 C 290.07 646.62 290.38 639.19 292.14 631.92 C 293.49 626.22 294.15 620.41 295.37 614.69 Z" fill="#576068" />
<path d="M 334.15 614.70 C 336.86 614.66 339.56 614.69 342.26 614.69 C 340.75 618.18 339.02 621.58 337.43 625.04 C 334.99 630.18 334.53 635.71 331.63 640.67 C 328.82 645.53 327.72 650.88 324.57 655.54 C 321.37 660.34 319.41 665.50 316.91 670.66 C 315.76 670.11 314.19 669.74 313.33 668.78 C 312.50 667.75 312.87 666.55 312.98 665.34 C 313.54 661.73 315.27 658.88 316.96 655.74 C 318.85 652.30 319.29 648.72 320.85 645.04 C 322.57 640.99 324.94 637.37 326.24 633.12 C 328.35 626.55 329.87 620.32 334.15 614.70 Z" fill="#576068" />
<path d="M 380.99 614.70 C 382.20 614.73 383.42 614.78 384.64 614.84 C 382.77 616.97 381.48 619.30 380.50 621.95 C 378.69 626.97 375.25 630.82 373.04 635.63 C 371.04 640.09 367.93 643.78 365.66 648.08 C 363.81 651.85 361.06 654.96 358.93 658.59 C 355.67 664.26 351.54 669.21 347.73 674.51 C 345.92 677.09 343.12 679.19 341.74 682.00 C 340.82 686.78 343.64 692.08 343.06 697.01 C 342.65 700.42 342.37 704.13 341.04 707.32 C 338.95 710.95 334.65 713.23 332.47 716.88 C 333.11 721.32 333.93 725.76 334.64 730.20 C 336.22 735.79 338.73 741.15 340.80 746.57 C 342.04 750.12 341.67 754.29 342.23 758.01 C 342.57 761.64 344.14 764.81 343.98 768.52 C 339.42 766.32 340.69 760.11 340.44 755.99 C 340.67 750.26 337.95 746.18 336.61 740.77 C 336.03 738.07 334.42 736.26 332.60 734.32 C 332.56 731.22 332.80 728.03 332.35 724.96 C 331.59 722.09 330.12 719.39 329.05 716.61 C 332.54 713.19 336.99 709.93 339.50 705.71 C 341.69 698.74 339.68 689.96 339.58 683.19 C 339.58 679.31 342.96 676.81 345.24 674.10 C 350.16 668.34 354.13 661.71 358.53 655.55 C 361.68 651.20 363.69 646.24 366.74 641.82 C 369.79 637.36 371.80 632.35 374.87 627.90 C 377.62 623.83 379.41 619.33 380.99 614.70 Z" fill="#576068" />
<path d="M 384.64 614.84 L 386.12 614.90 C 382.95 620.16 381.25 626.05 377.68 631.03 C 375.12 634.61 373.84 638.82 371.38 642.44 C 365.11 651.47 360.00 661.44 353.24 670.12 C 350.20 674.46 347.35 678.75 343.14 682.08 C 343.35 685.89 344.74 689.30 345.49 692.98 C 346.24 698.10 344.14 703.83 342.23 708.54 C 340.80 712.20 336.73 713.74 334.57 716.87 C 333.95 724.67 337.00 730.60 339.10 737.83 C 339.89 740.35 341.48 742.54 342.26 745.04 C 342.93 748.84 342.57 752.71 343.53 756.52 C 344.35 759.70 345.54 762.80 346.57 765.91 L 345.54 767.30 L 343.98 768.52 C 344.14 764.81 342.57 761.64 342.23 758.01 C 341.67 754.29 342.04 750.12 340.80 746.57 C 338.73 741.15 336.22 735.79 334.64 730.20 C 333.93 725.76 333.11 721.32 332.47 716.88 C 334.65 713.23 338.95 710.95 341.04 707.32 C 342.37 704.13 342.65 700.42 343.06 697.01 C 343.64 692.08 340.82 686.78 341.74 682.00 C 343.12 679.19 345.92 677.09 347.73 674.51 C 351.54 669.21 355.67 664.26 358.93 658.59 C 361.06 654.96 363.81 651.85 365.66 648.08 C 367.93 643.78 371.04 640.09 373.04 635.63 C 375.25 630.82 378.69 626.97 380.50 621.95 C 381.48 619.30 382.77 616.97 384.64 614.84 Z" fill="#d6bd9b" />
<path d="M 413.67 615.50 C 414.21 615.49 414.74 615.50 415.28 615.53 C 415.61 622.34 415.35 629.18 415.42 636.00 C 415.50 715.86 415.30 795.73 415.52 875.60 C 414.82 875.61 414.12 875.63 413.42 875.64 C 413.57 793.76 413.45 711.88 413.50 630.00 C 413.56 625.18 413.26 620.30 413.67 615.50 Z" fill="#d6bd9b" />
<path d="M 503.68 615.86 C 504.55 615.71 505.41 615.57 506.28 615.44 C 506.42 694.29 506.30 773.15 506.35 852.00 C 506.26 858.05 506.25 864.04 506.94 870.06 C 507.34 873.46 506.36 876.42 505.57 879.67 C 522.56 879.92 539.63 880.00 556.63 879.67 C 556.83 791.73 556.57 703.38 556.76 615.43 L 558.36 614.82 C 558.36 694.22 558.36 773.61 558.39 853.00 C 558.41 861.93 558.30 870.92 558.64 879.84 C 552.36 881.88 546.47 881.15 540.00 881.23 C 486.00 881.22 432.00 881.22 378.00 881.24 C 371.74 881.38 365.58 881.20 359.37 880.38 C 358.53 876.61 358.37 872.85 358.43 869.00 C 358.48 863.97 357.58 859.03 357.52 854.00 C 357.22 845.67 357.89 836.77 356.41 828.60 C 356.00 826.12 354.81 824.04 353.50 821.95 C 353.55 820.07 353.59 818.20 353.55 816.32 C 353.71 811.94 352.26 808.10 350.94 804.02 C 349.10 797.82 350.05 791.90 349.29 785.71 C 348.15 780.38 345.42 775.91 345.63 770.22 C 347.27 773.37 349.12 776.64 350.04 780.09 C 351.02 784.61 350.70 789.43 351.35 794.03 C 351.81 798.16 353.40 801.93 353.99 806.00 C 354.65 810.42 354.48 814.61 355.59 819.00 C 356.49 822.69 358.24 826.16 358.44 829.92 C 358.74 835.27 358.42 840.65 358.69 846.00 C 358.90 852.39 360.19 858.61 360.48 864.98 C 360.71 869.87 361.30 874.73 361.62 879.61 C 379.73 880.00 397.88 879.89 415.99 879.61 C 425.66 879.90 435.33 879.76 445.00 879.81 C 464.77 879.54 484.54 880.10 504.32 879.70 C 504.19 878.61 504.05 877.53 503.90 876.44 C 502.00 871.59 502.83 867.09 502.74 862.00 C 502.75 785.33 502.73 708.67 502.75 632.00 C 502.79 626.42 502.24 621.33 503.68 615.86 Z" fill="#d6bd9b" />
<path d="M 558.36 614.82 L 560.53 614.70 C 560.66 701.81 560.51 790.78 560.69 878.03 C 560.66 879.76 560.46 881.15 558.54 881.58 C 554.48 882.28 550.12 881.65 546.00 881.68 C 488.67 881.64 431.33 881.78 374.00 881.65 C 369.38 881.60 364.65 882.21 360.06 881.73 C 358.86 881.62 356.94 880.94 356.77 879.56 C 356.13 875.46 356.48 871.15 356.39 867.00 C 356.40 860.31 355.41 853.71 355.52 847.02 C 355.60 842.15 355.57 837.35 354.40 832.58 C 353.50 828.96 353.25 825.69 353.50 821.95 C 354.81 824.04 356.00 826.12 356.41 828.60 C 357.89 836.77 357.22 845.67 357.52 854.00 C 357.58 859.03 358.48 863.97 358.43 869.00 C 358.37 872.85 358.53 876.61 359.37 880.38 C 365.58 881.20 371.74 881.38 378.00 881.24 C 432.00 881.22 486.00 881.22 540.00 881.23 C 546.47 881.15 552.36 881.88 558.64 879.84 C 558.30 870.92 558.41 861.93 558.39 853.00 C 558.36 773.61 558.36 694.22 558.36 614.82 Z" fill="#576068" />
<path d="M 580.83 614.66 C 582.40 614.80 583.94 615.05 585.50 615.28 C 585.42 703.66 585.39 792.06 585.49 880.44 C 607.66 880.74 629.84 880.38 652.00 880.56 C 693.66 880.52 735.35 880.51 777.00 880.58 C 779.06 880.56 781.10 880.45 783.13 880.15 C 783.86 879.87 784.57 879.58 785.29 879.29 C 785.31 872.83 785.33 866.43 785.99 860.00 C 786.82 850.99 787.43 841.78 789.53 832.97 C 790.97 838.32 790.60 843.56 790.33 849.02 C 790.03 854.62 787.91 859.68 787.34 865.31 C 786.72 870.08 787.08 874.92 786.50 879.68 C 786.35 881.25 785.28 881.49 783.94 881.74 C 779.71 882.39 775.27 882.12 771.00 882.13 C 713.33 882.07 655.67 882.10 598.00 882.12 C 592.42 882.23 587.03 882.42 581.64 880.65 C 581.54 797.85 581.62 714.83 581.56 632.00 C 581.48 626.10 582.10 620.49 580.83 614.66 Z" fill="#576068" />
<path d="M 639.33 615.20 C 639.60 702.01 639.28 788.90 639.51 875.71 C 638.83 875.63 638.15 875.55 637.47 875.47 C 637.58 790.32 637.49 705.14 637.52 619.98 C 637.55 618.67 637.60 617.35 637.72 616.05 C 638.26 615.76 638.79 615.47 639.33 615.20 Z" fill="#d6bd9b" />
<path d="M 757.86 615.45 C 759.20 615.20 760.54 614.93 761.88 614.73 C 763.25 616.71 764.81 618.62 765.96 620.74 C 767.06 623.24 767.23 626.15 768.19 628.70 C 769.78 631.56 772.61 633.74 774.19 636.63 C 775.13 638.56 775.44 640.91 775.88 642.99 C 778.63 645.75 781.37 648.19 782.72 651.97 C 784.37 656.45 787.55 659.61 789.98 663.60 C 792.61 668.02 796.22 671.62 799.07 675.90 C 800.99 678.78 803.90 681.16 805.43 684.25 C 806.91 687.55 802.82 690.66 802.51 693.96 C 802.05 698.56 802.26 703.07 804.74 707.11 C 806.78 711.07 809.93 713.88 812.74 717.22 C 814.44 719.30 813.19 722.27 812.34 724.46 C 811.06 727.36 810.68 730.44 809.80 733.45 C 808.97 735.37 807.56 737.02 806.74 738.96 C 806.16 742.22 806.63 745.69 806.17 748.98 C 805.51 751.98 803.16 754.70 802.76 757.95 C 802.25 760.83 802.49 764.02 801.54 766.77 C 800.56 768.12 799.00 769.10 797.76 770.19 C 798.09 768.10 798.39 766.00 798.66 763.91 C 799.19 763.47 799.72 763.04 800.25 762.60 C 800.76 756.63 801.83 750.79 801.76 744.77 C 802.63 744.62 803.51 744.48 804.38 744.33 C 804.51 741.18 804.65 738.02 804.75 734.87 C 805.28 734.70 805.82 734.54 806.36 734.38 C 809.54 728.56 808.88 722.68 808.48 716.33 C 806.35 714.57 804.61 712.69 802.96 710.47 C 802.59 710.47 802.23 710.46 801.86 710.46 C 801.38 707.93 800.79 705.42 800.01 702.97 C 799.48 700.01 799.44 697.09 799.68 694.10 C 800.80 690.34 801.49 685.70 800.28 681.90 C 796.59 676.87 792.40 672.19 788.95 666.97 C 786.73 663.58 784.35 660.32 781.62 657.31 C 781.53 656.51 781.45 655.71 781.37 654.90 C 778.92 651.40 776.39 647.94 773.90 644.46 C 772.49 639.15 769.72 634.77 765.87 630.90 C 765.53 624.38 762.24 619.91 757.86 615.45 Z" fill="#576068" />
<path d="M 801.43 614.67 C 804.32 614.65 807.22 614.68 810.11 614.68 C 810.85 618.68 812.30 622.32 814.14 625.93 C 817.63 632.62 818.40 640.06 822.30 646.60 C 825.27 651.27 825.18 656.56 827.47 661.50 C 828.88 664.54 828.57 667.47 828.63 670.73 C 827.95 670.67 827.27 670.61 826.59 670.55 C 825.58 667.35 824.35 664.43 822.12 661.87 C 818.34 657.36 816.94 652.29 814.16 647.16 C 811.27 641.84 810.39 635.89 807.43 630.61 C 804.59 625.51 803.21 620.19 801.43 614.67 Z" fill="#576068" />
<path d="M 841.51 614.68 C 843.83 614.64 846.15 614.67 848.48 614.68 C 849.31 624.23 849.42 633.42 851.50 642.63 C 852.64 647.86 852.63 653.11 852.51 658.43 C 851.16 658.46 849.81 658.50 848.47 658.53 C 848.48 655.05 848.75 651.41 848.17 647.97 C 847.28 644.21 845.34 640.90 844.87 636.99 C 843.97 629.23 840.63 622.69 841.51 614.68 Z" fill="#576068" />
<path d="M 886.71 614.67 L 888.47 614.67 C 888.52 625.60 888.52 636.53 888.51 647.45 C 890.61 649.69 892.92 651.80 894.82 654.22 C 896.45 656.32 897.06 658.93 897.82 661.43 C 898.33 661.55 898.85 661.66 899.36 661.78 C 899.33 663.28 899.31 664.78 899.27 666.28 C 898.40 667.42 897.47 668.57 896.77 669.83 C 896.25 672.21 896.27 674.74 896.15 677.17 C 895.45 677.32 894.74 677.47 894.04 677.63 C 892.26 679.95 890.07 682.22 888.79 684.85 C 888.28 687.84 888.50 690.98 888.48 694.00 C 888.56 770.62 888.37 847.40 888.56 924.00 L 886.64 924.00 C 886.62 844.86 886.75 765.00 886.62 685.95 C 886.50 681.89 889.69 679.05 891.63 675.77 C 894.96 670.95 895.01 664.76 894.41 659.15 C 894.12 655.93 889.85 653.70 887.55 651.89 C 886.91 647.93 886.60 644.01 886.67 640.00 C 886.77 631.56 886.63 623.12 886.71 614.67 Z" fill="#576068" />
<path d="M 255.69 657.56 C 256.83 657.58 257.96 657.60 259.10 657.62 C 262.52 660.37 266.06 662.93 269.92 665.05 C 274.30 668.18 277.14 672.00 282.77 672.98 C 285.71 675.18 288.74 677.24 291.89 679.14 C 294.25 679.69 296.48 680.23 298.49 681.67 C 302.03 684.05 305.94 685.45 309.76 687.29 C 312.94 687.61 316.08 688.11 319.22 688.70 C 320.72 689.66 322.14 690.62 323.82 691.26 C 326.99 691.69 330.27 691.23 333.43 691.65 C 334.83 692.83 334.46 694.34 334.65 696.00 C 334.67 698.31 334.72 700.76 334.13 703.01 C 332.42 706.39 328.70 708.88 326.00 711.47 C 317.69 711.75 309.64 711.75 301.43 710.26 C 301.02 709.83 300.60 709.41 300.19 708.98 C 297.43 707.94 295.54 706.80 293.47 704.71 C 291.18 704.17 288.90 703.65 286.59 703.23 C 286.55 702.81 286.51 702.39 286.48 701.97 C 278.09 696.39 270.77 689.48 264.51 681.61 C 261.33 678.49 259.21 675.97 258.10 671.52 C 257.38 671.45 256.66 671.38 255.93 671.30 C 255.55 669.10 255.11 666.92 254.55 664.76 C 254.90 662.35 255.32 659.96 255.69 657.56 Z" fill="#d6bd9b" />
<path d="M 887.37 656.91 C 888.52 661.69 889.77 668.28 886.70 672.58 C 881.01 680.80 874.35 688.25 866.93 694.94 C 863.44 697.96 859.38 700.20 855.79 703.13 C 853.93 703.68 852.07 704.22 850.22 704.80 C 846.40 708.45 841.83 709.70 837.00 711.45 C 830.57 711.53 824.14 711.67 817.71 711.48 C 814.72 708.79 810.60 705.88 809.08 702.06 C 807.80 698.79 808.81 694.86 809.61 691.59 C 813.57 691.55 817.54 691.51 821.50 691.45 C 821.56 690.59 821.63 689.73 821.69 688.87 C 826.18 688.40 830.60 687.60 835.11 687.27 C 839.30 684.97 843.74 683.33 847.76 680.71 C 848.50 680.56 849.24 680.42 849.98 680.28 C 851.10 679.92 852.22 679.56 853.35 679.21 C 856.28 677.11 859.20 675.00 861.93 672.65 C 863.07 672.56 864.21 672.47 865.34 672.38 C 868.35 669.86 871.44 667.48 874.27 664.77 C 874.96 664.64 875.65 664.52 876.34 664.39 C 879.78 661.45 883.08 658.56 887.37 656.91 Z" fill="#d6bd9b" />
<path d="M 257.53 661.56 C 258.91 661.62 260.30 661.78 261.66 661.92 C 261.57 663.07 261.48 664.21 261.39 665.35 C 260.25 665.45 259.12 665.56 257.98 665.66 C 257.81 664.31 257.61 662.93 257.53 661.56 Z" fill="#ffffff" />
<path d="M 300.96 703.07 C 302.89 703.03 304.86 704.14 306.53 705.00 C 304.86 705.87 302.90 706.96 300.96 706.90 C 299.53 706.65 298.20 705.66 296.92 705.01 C 298.19 704.34 299.52 703.32 300.96 703.07 Z" fill="#d6bd9b" />
<path d="M 827.00 706.95 C 828.35 707.44 829.55 708.16 830.79 708.86 C 827.11 709.98 824.59 710.95 821.38 708.13 C 823.14 707.60 825.15 706.78 827.00 706.95 Z" fill="#d6bd9b" />
<path d="M 309.24 727.04 C 310.01 730.30 310.90 733.42 312.64 736.32 C 314.98 740.05 314.08 743.81 314.49 748.02 C 314.56 751.66 317.42 754.47 318.12 757.96 C 319.03 763.13 318.88 768.45 319.81 773.63 C 321.91 783.46 321.92 793.85 322.65 803.86 C 323.11 808.30 324.58 812.52 325.10 816.98 C 325.88 823.97 326.43 830.97 326.32 838.00 C 326.43 861.00 326.56 884.00 326.39 907.00 C 326.35 910.72 325.97 914.31 324.26 917.66 C 322.61 916.05 322.39 913.09 322.02 910.91 C 320.98 901.02 321.97 890.90 320.93 880.98 C 320.33 875.31 320.78 869.65 320.27 863.99 C 319.40 854.31 318.21 844.74 318.45 835.00 C 318.64 826.62 317.87 818.32 317.35 809.98 C 316.87 804.23 314.87 798.83 314.57 793.04 C 314.06 784.28 313.01 775.64 311.63 766.98 C 310.63 760.80 310.56 754.62 310.32 748.39 C 310.17 743.43 306.72 739.83 306.55 735.01 C 306.66 731.69 305.81 728.80 309.24 727.04 Z" fill="#576068" />
<path d="M 288.61 730.00 C 291.43 736.63 290.19 743.67 290.51 751.03 C 290.37 758.07 291.73 764.97 291.76 772.00 C 291.81 791.34 291.76 810.67 291.39 830.01 C 291.29 833.35 290.95 836.66 290.75 840.00 C 290.02 855.71 291.87 870.57 288.02 885.46 C 287.26 887.76 286.94 890.10 284.25 890.78 C 282.89 886.17 283.65 880.79 283.54 876.00 C 283.52 866.94 283.53 858.03 284.49 849.00 C 284.72 843.41 284.32 837.86 284.98 832.28 C 286.09 823.53 285.13 814.77 286.23 806.02 C 286.79 792.71 286.38 779.33 286.56 766.00 C 286.78 754.13 285.80 741.49 288.61 730.00 Z" fill="#576068" />
<path d="M 834.55 729.92 C 835.33 732.50 836.28 735.31 836.21 738.02 C 835.67 741.75 833.77 745.09 833.57 748.96 C 833.24 753.99 833.22 759.01 832.55 764.02 C 832.01 768.94 829.84 773.40 829.35 778.35 C 828.69 784.56 827.81 790.76 827.51 797.00 C 827.13 806.42 825.26 815.53 825.43 825.00 C 825.69 833.38 824.46 841.63 824.47 850.00 C 823.71 861.30 821.47 872.58 821.46 884.00 C 821.19 889.52 821.07 895.27 819.99 900.69 C 819.26 901.37 818.51 902.02 817.73 902.64 C 817.25 889.69 815.96 876.99 816.99 864.01 C 817.78 855.33 817.11 846.66 817.65 838.00 C 819.06 822.66 819.70 807.34 820.71 791.98 C 821.17 786.10 823.79 780.91 824.29 775.01 C 825.04 768.33 823.69 761.62 825.84 755.41 C 826.84 752.43 827.62 749.39 828.53 746.38 C 829.41 743.38 831.36 741.25 832.71 738.51 C 833.70 735.79 833.91 732.75 834.55 729.92 Z" fill="#576068" />
<path d="M 853.49 739.99 C 854.56 740.50 855.64 741.01 856.71 741.52 C 856.50 783.80 856.75 826.09 856.67 868.37 L 853.65 867.23 C 852.17 861.63 852.33 855.57 851.73 849.81 C 851.64 837.79 849.21 826.00 849.50 814.00 C 849.48 799.67 849.43 785.34 849.51 771.00 C 849.44 761.69 852.49 752.99 852.92 743.70 C 853.11 742.46 853.30 741.22 853.49 739.99 Z" fill="#576068" />
<path d="M 343.98 768.52 L 345.54 767.30 C 345.56 768.27 345.59 769.25 345.63 770.22 C 345.42 775.91 348.15 780.38 349.29 785.71 C 350.05 791.90 349.10 797.82 350.94 804.02 C 352.26 808.10 353.71 811.94 353.55 816.32 C 352.27 813.08 350.08 810.22 348.90 806.96 C 347.63 801.56 348.91 795.40 348.17 789.96 C 347.36 786.89 345.72 784.22 345.29 781.01 C 344.77 776.87 344.08 772.69 343.98 768.52 Z" fill="#576068" />
<path d="M 793.32 788.53 C 793.32 791.33 793.19 794.11 793.31 796.91 C 794.30 803.24 790.71 807.75 790.29 813.79 C 789.46 820.22 789.54 826.49 789.53 832.97 C 787.43 841.78 786.82 850.99 785.99 860.00 C 785.33 866.43 785.31 872.83 785.29 879.29 C 784.57 879.58 783.86 879.87 783.13 880.15 C 783.32 875.86 783.35 871.60 783.82 867.33 C 785.32 854.47 784.88 841.84 787.06 829.01 C 788.02 823.66 788.43 818.43 788.50 813.00 C 788.55 808.85 789.85 805.11 791.14 801.24 C 792.54 797.02 792.72 792.91 793.32 788.53 Z" fill="#d6bd9b" />
<path d="M 794.60 794.28 C 795.41 798.95 795.15 803.71 794.24 808.34 C 793.86 810.59 791.78 812.20 790.29 813.79 C 790.71 807.75 794.30 803.24 793.31 796.91 C 793.75 796.04 794.18 795.16 794.60 794.28 Z" fill="#576068" />
<path d="M 361.74 917.53 C 366.17 915.96 370.36 916.58 375.00 916.49 C 505.33 916.50 635.67 916.45 766.00 916.49 C 771.23 916.53 776.21 916.08 781.36 917.32 C 781.71 919.55 782.12 921.78 782.51 924.00 L 781.28 924.00 C 780.28 922.60 779.40 921.00 778.17 919.80 C 774.17 919.28 770.03 919.63 766.00 919.59 C 632.98 919.55 499.96 919.56 366.94 919.62 C 363.65 919.43 363.36 921.89 361.65 924.00 L 360.49 924.00 C 360.89 921.84 361.28 919.68 361.74 917.53 Z" fill="#d6bd9b" />
<path d="M 366.94 919.62 C 499.96 919.56 632.98 919.55 766.00 919.59 C 770.03 919.63 774.17 919.28 778.17 919.80 C 779.40 921.00 780.28 922.60 781.28 924.00 L 361.65 924.00 C 363.36 921.89 363.65 919.43 366.94 919.62 Z" fill="#ffffff" />
</svg>